<svg width="20" height="20" viewBox="0 0 20 20" fill="none" xmlns="http://www.w3.org/2000/svg">
<path fill-rule="evenodd" clip-rule="evenodd" d="M10.024 1.66606C6.18316 1.65301 3.04593 4.70881 2.92054 8.53381L2.91669 8.77123C2.98053 10.6461 3.61841 12.4333 4.74192 13.9057L5.00579 14.25C6.07819 15.6136 7.35261 16.8105 8.78358 17.7969L9.12812 18.0289L9.17839 18.0683C9.66885 18.4207 10.3311 18.4207 10.8215 18.0683L10.8634 18.034C11.9988 17.2976 13.0459 16.4324 13.9837 15.4554C15.8905 13.437 17.0398 11.1754 17.0832 8.8785L17.0833 8.79322C17.0963 4.94262 14.0499 1.79574 10.2367 1.66992L10.024 1.66606ZM10.0197 2.93056C13.1685 2.94133 15.725 5.45719 15.8199 8.59027L15.8226 8.86652C15.7862 10.7922 14.7779 12.7764 13.0722 14.582C12.2025 15.4879 11.2273 16.2932 10.1697 16.978L10.0992 17.031C10.0422 17.0805 9.95772 17.0805 9.90075 17.031L9.83224 16.9793C8.25666 15.9506 6.87383 14.6519 5.74699 13.1424C4.83934 11.9528 4.30148 10.5305 4.19322 9.04675L4.17732 8.74923C4.18801 5.59285 6.69612 3.02849 9.81956 2.93327L10.0197 2.93056ZM9.99996 6.16709C8.50963 6.16709 7.30148 7.37897 7.30148 8.8739C7.30148 10.3688 8.50963 11.5807 9.99996 11.5807C11.4903 11.5807 12.6984 10.3688 12.6984 8.8739C12.6984 7.37897 11.4903 6.16709 9.99996 6.16709ZM9.99996 7.43161C10.7941 7.43161 11.4378 8.07735 11.4378 8.8739C11.4378 9.67045 10.7941 10.3162 9.99996 10.3162C9.20586 10.3162 8.56211 9.67045 8.56211 8.8739C8.56211 8.07735 9.20586 7.43161 9.99996 7.43161Z" fill="#D9D9D9"/>
</svg>
