<svg width="48" height="48" viewBox="0 0 48 48" fill="none" xmlns="http://www.w3.org/2000/svg">
<rect x="1" y="1" width="46" height="46" rx="23" fill="black" fill-opacity="0.5"/>
<path fill-rule="evenodd" clip-rule="evenodd" d="M23.3723 15.3945V25.6187L21.7377 23.9786L21.6537 23.9058C21.3606 23.6873 20.9438 23.7107 20.677 23.9764C20.3835 24.2687 20.3826 24.7436 20.6749 25.0371L23.5909 27.9651L23.5931 27.967C23.6178 27.9916 23.6441 28.0144 23.672 28.0354L23.6751 28.038C23.9691 28.257 24.3872 28.2327 24.6537 27.9651L27.5697 25.0371L27.6421 24.9528C27.8594 24.6587 27.8343 24.2421 27.5675 23.9764L27.4832 23.904C27.1892 23.6867 26.7726 23.7118 26.5069 23.9786L24.8723 25.6192V15.3945L24.8654 15.2928C24.8158 14.9267 24.502 14.6445 24.1223 14.6445C23.7081 14.6445 23.3723 14.9803 23.3723 15.3945ZM29.9054 33.1166C32.2529 33.0079 34.1221 31.0708 34.1221 28.6964V23.8124L34.1172 23.6036C34.0083 21.2506 32.0675 19.3774 29.6881 19.3774H28.7551L28.6533 19.3843C28.2872 19.4339 28.0051 19.7477 28.0051 20.1274C28.0051 20.5416 28.3409 20.8774 28.7551 20.8774H29.6881L29.8605 20.8824C31.4011 20.9716 32.6221 22.2487 32.6221 23.8124V28.6964L32.6171 28.8683C32.5282 30.4041 31.2551 31.6214 29.6971 31.6214H18.5571L18.3846 31.6164C16.8441 31.5272 15.6221 30.2493 15.6221 28.6864V23.8014L15.627 23.6297C15.716 22.095 16.9897 20.8774 18.5471 20.8774H19.4891L19.5908 20.8706C19.9569 20.8209 20.2391 20.5071 20.2391 20.1274C20.2391 19.7132 19.9033 19.3774 19.4891 19.3774H18.5471L18.3327 19.3825C15.9889 19.4944 14.1221 21.4302 14.1221 23.8014V28.6864L14.1269 28.8952C14.2359 31.2475 16.1778 33.1214 18.5571 33.1214H29.6971L29.9054 33.1166Z" fill="#808080"/>
<rect x="1" y="1" width="46" height="46" rx="23" stroke="#454545" stroke-width="2"/>
</svg>
