<svg version="1.1" xmlns="http://www.w3.org/2000/svg" style="display:none;"><symbol id="chat" viewBox="0 0 20 20"><path fill="currentColor" fill-rule="evenodd" clip-rule="evenodd" d="M10.053.792a9.226 9.226 0 0 0-7.916 4.42 9.194 9.194 0 0 0-.297 9.05l.169.33a.481.481 0 0 1 .04.373 17.286 17.286 0 0 0-.624 2.03l-.018.151c0 .705.376 1.189 1.122 1.172l.124-.015c.678-.15 1.346-.343 1.999-.577a.626.626 0 0 1 .356.039l.628.356c.001.004.002.008.009.011l.042.015a9.234 9.234 0 0 0 10.388-1.234 9.199 9.199 0 0 0 2.549-10.132A9.219 9.219 0 0 0 10.053.792zm-6.79 14.59a1.778 1.778 0 0 0-.116-1.386l-.167-.325a7.915 7.915 0 0 1 .254-7.791 7.94 7.94 0 0 1 6.552-3.801l.259-.004a7.936 7.936 0 0 1 7.377 5.154 7.912 7.912 0 0 1-2.193 8.717l-.203.172a7.948 7.948 0 0 1-8.495 1.013L6.266 17l.011.002-.017-.005-.389-.223a5.978 5.978 0 0 0-.341-.182 1.933 1.933 0 0 0-1.267-.09l-.385.132c-.255.084-.506.16-.755.229l-.363.096M4.912 10a1.05 1.05 0 1 1 2.101.001A1.05 1.05 0 0 1 4.912 10zm4.086 0a1.05 1.05 0 1 1 2.101.001A1.05 1.05 0 0 1 8.998 10zm5.136-1.05a1.05 1.05 0 1 0 0 2.101 1.05 1.05 0 0 0 0-2.101z"/></symbol><symbol id="clock" viewBox="0 0 20 20"><path fill="currentColor" d="M10 19.142C4.959 19.142.858 15.041.858 10S4.959.858 10 .858 19.142 4.959 19.142 10 15.041 19.142 10 19.142zm0-17.004c-4.335 0-7.862 3.527-7.862 7.862S5.665 17.862 10 17.862s7.862-3.527 7.862-7.862S14.335 2.138 10 2.138zm4.569 11.424a.64.64 0 0 0-.111-.898L10.64 9.688V4.899a.64.64 0 1 0-1.28 0V10c0 .197.091.383.247.505l4.064 3.168a.64.64 0 0 0 .898-.111z"/></symbol><symbol id="livestream" viewBox="0 0 20 20"><path fill="currentColor" fill-rule="evenodd" clip-rule="evenodd" d="M13.339 14.644c.26.227.655.2.882-.06 1.05-1.205 1.673-2.811 1.673-4.584 0-1.773-.622-3.379-1.673-4.583a.625.625 0 0 0-.942.822c.848.971 1.365 2.284 1.365 3.761 0 1.477-.517 2.79-1.365 3.763a.624.624 0 0 0 .06.881zm2.538 2.551c.26.227.655.2.882-.06 1.631-1.87 2.601-4.368 2.601-7.135 0-2.766-.97-5.265-2.601-7.135a.625.625 0 0 0-.942.822C17.245 5.324 18.11 7.53 18.11 10c0 2.471-.865 4.676-2.293 6.313-.227.26-.2.655.06.882zm-9.216-2.551a.625.625 0 0 1-.882-.06C4.729 13.379 4.106 11.773 4.106 10c0-1.773.622-3.379 1.673-4.583a.625.625 0 0 1 .942.822C5.873 7.21 5.356 8.523 5.356 10c0 1.477.517 2.79 1.365 3.763.227.259.2.654-.06.881zm-2.538 2.551a.625.625 0 0 1-.882-.06C1.61 15.265.64 12.767.64 10c0-2.766.97-5.265 2.601-7.135a.625.625 0 0 1 .942.822C2.755 5.324 1.89 7.53 1.89 10c0 2.471.865 4.676 2.293 6.313.227.26.2.655-.06.882zM12.5 9.943a2.5 2.5 0 1 1-5 0 2.5 2.5 0 0 1 5 0z"/></symbol><symbol id="location" viewBox="0 0 20 20"><path fill="currentColor" d="M10 19.958a.634.634 0 0 1-.355-.107c-.323-.215-7.909-5.343-7.909-11.544C1.736 3.75 5.444.043 10 .043s8.264 3.708 8.264 8.264c0 6.202-7.586 11.33-7.909 11.544a.637.637 0 0 1-.355.107zm0-18.636a6.992 6.992 0 0 0-6.984 6.984c0 4.804 5.515 9.155 6.984 10.228 1.469-1.073 6.984-5.424 6.984-10.228.001-3.851-3.133-6.984-6.984-6.984zm0 10.165a3.185 3.185 0 0 1-3.182-3.181A3.185 3.185 0 0 1 10 5.125a3.185 3.185 0 0 1 3.181 3.181A3.184 3.184 0 0 1 10 11.487zm0-5.082c-1.048 0-1.901.853-1.901 1.901s.853 1.902 1.901 1.902 1.901-.854 1.901-1.902S11.048 6.405 10 6.405z"/></symbol><symbol id="ticket" viewBox="0 0 20 20"><path fill="currentColor" fill-rule="evenodd" clip-rule="evenodd" d="M15.714 2.5H4.286A3.443 3.443 0 0 0 .834 5.934L.833 8.23c0 .326.24.595.553.637l.087.006c.699 0 1.217.486 1.217 1.128 0 .664-.54 1.2-1.217 1.2a.642.642 0 0 0-.64.643v2.222A3.442 3.442 0 0 0 4.285 17.5h11.43a3.442 3.442 0 0 0 3.452-3.434v-2.222a.641.641 0 0 0-.639-.643 1.205 1.205 0 0 1-1.217-1.2c0-.664.54-1.201 1.217-1.201a.64.64 0 0 0 .639-.643l-.001-2.223A3.443 3.443 0 0 0 15.714 2.5zm0 1.286l.143.005a2.159 2.159 0 0 1 2.03 2.144v1.663l-.069.018a2.483 2.483 0 0 0-1.787 2.385l.004.147a2.485 2.485 0 0 0 1.782 2.238l.069.018v1.662a2.16 2.16 0 0 1-2.173 2.149h-3.498v-1.277l-.006-.087a.64.64 0 0 0-1.274.087v1.277h-6.65l-.143-.005a2.158 2.158 0 0 1-2.029-2.144v-1.663l.069-.018a2.483 2.483 0 0 0 1.787-2.384l-.005-.146c-.061-1.059-.789-1.898-1.78-2.173l-.072-.018.002-1.73c0-1.185.971-2.149 2.173-2.149h6.652v1.646l.006.087a.64.64 0 0 0 1.274-.087V3.786h3.495zm-4.137 3.431c.324 0 .591.242.634.556l.006.087v4.132a.641.641 0 0 1-.64.643.642.642 0 0 1-.634-.556l-.006-.087V7.86a.643.643 0 0 1 .64-.643z"/></symbol><symbol viewBox="0 0 20 20" id="ticket-2"><path fill="none" stroke="currentColor" stroke-width="1.5" stroke-linecap="round" stroke-linejoin="round" d="M7.08,2.279C6.734,2.625,6.753,3.185,6.958,3.63c0.214,0.466,0.28,0.986,0.19,1.49c-0.09,0.505-0.333,0.969-0.696,1.332C6.089,6.814,5.625,7.057,5.12,7.147c-0.505,0.09-1.025,0.024-1.49-0.19C3.185,6.754,2.625,6.734,2.279,7.08L1.76,7.6C1.593,7.766,1.5,7.991,1.5,8.227c0,0.235,0.093,0.461,0.26,0.627l9.387,9.387c0.166,0.166,0.392,0.26,0.627,0.26c0.235,0,0.461-0.093,0.627-0.26l0.52-0.52c0.346-0.346,0.327-0.905,0.122-1.351c-0.214-0.466-0.28-0.986-0.19-1.49c0.09-0.504,0.333-0.969,0.696-1.332c0.362-0.362,0.827-0.605,1.332-0.696c0.505-0.09,1.025-0.024,1.49,0.19c0.445,0.204,1.005,0.223,1.351-0.122l0.52-0.52c0.166-0.166,0.26-0.392,0.26-0.627c0-0.235-0.093-0.461-0.26-0.627L8.853,1.76C8.687,1.593,8.462,1.5,8.227,1.5C7.991,1.5,7.766,1.593,7.6,1.76L7.08,2.279L7.08,2.279z"/></symbol><symbol id="calendar" viewBox="0 0 24 24"><path fill="currentColor" fill-rule="evenodd" clip-rule="evenodd" d="M16.419 2.603A.694.694 0 0 0 15.733 2a.695.695 0 0 0-.693.698v.771H8.968v-.771l-.006-.095A.694.694 0 0 0 8.276 2a.695.695 0 0 0-.692.698v.789C4.747 3.682 3 5.52 3 8.486v8.418C3 20.087 4.958 22 8.096 22h7.807C19.045 22 21 20.119 21 16.974V8.486c.009-2.967-1.732-4.805-4.575-5v-.788l-.006-.095zM15.04 4.864v.895l.006.095a.694.694 0 0 0 .686.603.695.695 0 0 0 .692-.698v-.874c2.069.172 3.197 1.418 3.19 3.599v.404H4.385v-.402c0-2.18 1.135-3.428 3.199-3.601v.874l.006.095a.694.694 0 0 0 .686.603.695.695 0 0 0 .692-.698v-.895h6.072zM4.385 10.283v6.621c0 2.403 1.329 3.701 3.712 3.701h7.807c2.391 0 3.712-1.271 3.712-3.63v-6.691H4.385zm12.416 2.935a.695.695 0 0 0-.692-.698l-.103.006a.697.697 0 0 0 .103 1.389l.094-.006a.695.695 0 0 0 .598-.691zm-4.788-.697c.382 0 .692.312.692.698 0 .353-.26.645-.598.691l-.094.006a.697.697 0 0 1-.701-.698c0-.353.26-.645.598-.691l.103-.006zm-3.413.697a.695.695 0 0 0-.692-.698l-.102.006a.695.695 0 0 0-.598.691c0 .385.31.698.692.698l.102-.006a.695.695 0 0 0 .598-.691zm7.509 2.918c.382 0 .692.312.692.698 0 .353-.26.645-.598.691l-.094.006a.697.697 0 0 1-.701-.698c0-.353.26-.645.598-.691l.103-.006zm-3.404.698a.695.695 0 0 0-.692-.698l-.102.006a.697.697 0 0 0 .103 1.389l.094-.006a.695.695 0 0 0 .597-.691zm-4.797-.698c.382 0 .692.312.692.698 0 .353-.26.645-.598.691l-.102.006a.695.695 0 0 1-.692-.698c0-.353.26-.645.598-.691l.102-.006z"/></symbol><symbol id="list" viewBox="0 0 24 24"><path fill="currentColor" d="M4 6.999a1 1 0 1 0 0-2 1 1 0 0 0 0 2zM4 13a1 1 0 1 0 0-2 1 1 0 0 0 0 2zM4 19.001a1 1 0 1 0 0-2 1 1 0 0 0 0 2zM20.06 11H7.94a.94.94 0 0 0-.94.94v.12c0 .519.421.94.94.94h12.12a.94.94 0 0 0 .94-.94v-.12a.94.94 0 0 0-.94-.94zM20.06 17.001H7.94a.94.94 0 0 0-.94.94v.12c0 .519.421.94.94.94h12.12a.94.94 0 0 0 .94-.94v-.12a.94.94 0 0 0-.94-.94zM20.06 4.999H7.94a.94.94 0 0 0-.94.94v.12c0 .519.421.94.94.94h12.12a.94.94 0 0 0 .94-.94v-.12a.94.94 0 0 0-.94-.94z"/></symbol><symbol id="bag-bold" viewBox="0 0 24 24"><path d="M12.005 2A4.992 4.992 0 0 1 17 6.774h-.026A.502.502 0 0 1 16.93 7h.156c1.217 0 2.492.844 3.003 2.88l.055.24.77 6.195c.553 3.95-1.609 5.612-4.558 5.683l-.198.002h-8.29c-2.996 0-5.305-1.092-4.798-5.416l.035-.27.778-6.194c.383-2.193 1.67-3.058 2.911-3.117L6.932 7h.078a.649.649 0 0 1 0-.226A4.992 4.992 0 0 1 12.005 2zm-2.908 8.33a.897.897 0 0 0-.884.909c0 .502.396.91.884.91a.897.897 0 0 0 .884-.91l-.007-.114a.893.893 0 0 0-.877-.796zm5.789 0a.897.897 0 0 0-.884.909c0 .502.396.91.884.91a.897.897 0 0 0 .884-.91.897.897 0 0 0-.884-.91zm-2.92-7.028a3.478 3.478 0 0 0-3.484 3.472.649.649 0 0 1 0 .226h7.011a.649.649 0 0 1-.043-.226 3.478 3.478 0 0 0-3.484-3.472z" fill="currentColor" fill-rule="nonzero"/></symbol><symbol id="buy" viewBox="0 0 24 24"><g stroke="currentColor" stroke-width="1.5" fill="none" fill-rule="evenodd" stroke-linecap="round" stroke-linejoin="round"><path d="M2.75 3.25l2.08.36.963 11.473a1.8 1.8 0 0 0 1.8 1.653h10.91a1.8 1.8 0 0 0 1.784-1.546l.95-6.558a1.341 1.341 0 0 0-1.136-1.52C20.037 7.105 5.164 7.1 5.164 7.1M14.125 10.795h2.773"/><path d="M7.154 20.203a.544.544 0 1 1 0 1.087.544.544 0 0 1 0-1.087zM18.435 20.203a.545.545 0 1 1 0 1.09.545.545 0 0 1 0-1.09z" fill="currentColor"/></g></symbol><symbol id="ticket-bold" viewBox="0 0 24 24"><path d="M12.436 4c.325 0 .59.256.59.573v2.405a.72.72 0 0 0 .724.705c.407 0 .726-.32.726-.705V4.573c0-.317.264-.573.59-.573h3.153C20.308 4 22 5.644 22 7.674v2.367a.694.694 0 0 1-.213.498.736.736 0 0 1-.512.207c-.716 0-1.296.563-1.296 1.25 0 .69.573 1.25 1.282 1.258.4.004.739.275.739.663v2.41C22 18.354 20.308 20 18.219 20h-3.153a.582.582 0 0 1-.59-.573v-2.03a.708.708 0 0 0-.726-.704.714.714 0 0 0-.725.705v2.029a.581.581 0 0 1-.589.573H5.781C3.702 20 2 18.356 2 16.326v-2.41c0-.387.34-.658.739-.662.71-.007 1.282-.568 1.282-1.259 0-.667-.56-1.174-1.296-1.174a.736.736 0 0 1-.512-.207.694.694 0 0 1-.213-.498V7.683C2 5.657 3.706 4 5.791 4zm1.314 5.703a.72.72 0 0 0-.725.705v3.758a.72.72 0 0 0 .725.704c.407 0 .726-.32.726-.704v-3.758a.714.714 0 0 0-.726-.705z" fill="currentColor" fill-rule="nonzero"/></symbol><symbol id="video-bold" viewBox="0 0 24 24"><path d="M11.905 4.5c2.422 0 4.113 1.669 4.113 4.06v6.88c0 2.391-1.69 4.06-4.113 4.06H6.113C3.691 19.5 2 17.831 2 15.44V8.56C2 6.17 3.691 4.5 6.113 4.5zm8.053 2.379c.439-.223.954-.2 1.373.064.419.263.669.72.669 1.22v7.675a1.429 1.429 0 0 1-1.412 1.436c-.215 0-.43-.05-.631-.153l-1.481-.748a1.623 1.623 0 0 1-.888-1.456V9.083c0-.621.34-1.18.888-1.456z" fill="currentColor" fill-rule="nonzero"/></symbol><symbol id="vip-bold" viewBox="0 0 16 16"><path fill-rule="evenodd" clip-rule="evenodd" fill="currentColor" d="M9.087 2.772a1.078 1.078 0 0 0-1.838 0l-2.123 3.46-1.16-1.727c-.593-.885-1.973-.465-1.973.6v5.062c0 .595.483 1.078 1.078 1.078h9.857c.595 0 1.078-.483 1.078-1.078v-4.82c0-1.099-1.451-1.493-2.008-.546l-.815 1.388-2.096-3.417zM1.993 13.28c0-.255.207-.462.462-.462h11.089a.462.462 0 0 1 0 .924H2.455a.462.462 0 0 1-.462-.462z"/></symbol></svg>
