<?xml version="1.0" encoding="utf-8"?>
<!-- Generator: Adobe Illustrator 24.2.1, SVG Export Plug-In . SVG Version: 6.00 Build 0)  -->
<svg version="1.1" id="图层_1" xmlns="http://www.w3.org/2000/svg" xmlns:xlink="http://www.w3.org/1999/xlink" x="0px" y="0px"
	 width="160px" height="48px" viewBox="0 0 160 48" style="enable-background:new 0 0 160 48;" xml:space="preserve">
<style type="text/css">
	.st0{fill-rule:evenodd;clip-rule:evenodd;fill:#FFFFFF;}
	.st1{fill:#191C20;}
</style>
<path id="Rectangle-2" class="st0" d="M5.1,0h149.7c2.8,0,5.1,2.3,5.1,5.1v37.7c0,2.8-2.3,5.1-5.1,5.1H5.1C2.3,48,0,45.7,0,42.9V5.1
	C0,2.3,2.3,0,5.1,0z"/>
<g>
	<path id="App-Store_1_" class="st1" d="M59.2,31.4h-5.7l-1.4,4h-2.4l5.4-14.9h2.5L63,35.4h-2.4L59.2,31.4z M54.1,29.6h4.5l-2.2-6.5
		h-0.1L54.1,29.6z M74.5,30c0,3.4-1.8,5.5-4.5,5.5c-1.4,0.1-2.7-0.7-3.4-1.9h-0.1V39h-2.2V24.6h2.2v1.8l0,0c0.7-1.2,2-2,3.4-1.9
		C72.7,24.5,74.5,26.7,74.5,30z M72.3,30c0-2.2-1.1-3.6-2.9-3.6c-1.7,0-2.8,1.5-2.8,3.6c0,2.2,1.1,3.6,2.8,3.6
		C71.1,33.7,72.3,32.3,72.3,30z M86.5,30c0,3.4-1.8,5.5-4.5,5.5c-1.4,0.1-2.7-0.7-3.4-1.9h-0.1V39h-2.2V24.6h2.1v1.8l0,0
		c0.7-1.2,2-2,3.4-1.9C84.6,24.5,86.5,26.7,86.5,30z M84.2,30c0-2.2-1.1-3.6-2.9-3.6c-1.7,0-2.8,1.5-2.8,3.6c0,2.2,1.1,3.6,2.8,3.6
		C83,33.7,84.2,32.3,84.2,30L84.2,30z M94.3,31.3c0.2,1.5,1.6,2.4,3.6,2.4c1.9,0,3.2-1,3.2-2.3c0-1.2-0.8-1.8-2.7-2.3l-2-0.4
		c-2.7-0.7-4-1.9-4-4c0-2.6,2.2-4.3,5.4-4.3c3.1,0,5.3,1.8,5.4,4.3H101c-0.1-1.5-1.4-2.4-3.2-2.4s-3,0.9-3,2.2
		c0,1.1,0.8,1.7,2.7,2.1l1.6,0.4c3,0.7,4.3,1.9,4.3,4.1c0,2.8-2.2,4.5-5.7,4.5c-3.3,0-5.5-1.7-5.7-4.4L94.3,31.3z M108.3,22.1v2.6
		h2.1v1.8h-2.1v6c0,0.9,0.4,1.4,1.3,1.4c0.2,0,0.5,0,0.7-0.1v1.8c-0.4,0.1-0.8,0.1-1.2,0.1c-2.2,0-3-0.8-3-2.9v-6.2h-1.7v-1.8h1.6
		v-2.6L108.3,22.1L108.3,22.1z M111.5,30c0-3.4,2-5.6,5.1-5.6s5.1,2.1,5.1,5.6c0,3.4-2,5.6-5.1,5.6S111.5,33.5,111.5,30z M119.5,30
		c0-2.3-1.1-3.7-2.9-3.7s-2.9,1.4-2.9,3.7s1.1,3.7,2.9,3.7S119.5,32.4,119.5,30L119.5,30z M123.6,24.6h2.1v1.8h0.1
		c0.3-1.2,1.4-2,2.6-2c0.3,0,0.5,0,0.8,0.1v2.1c-0.3-0.1-0.7-0.1-1-0.1c-0.7,0-1.3,0.2-1.7,0.7c-0.4,0.5-0.7,1.1-0.6,1.8v6.4h-2.2
		V24.6H123.6z M139.4,32.3c-0.3,2-2.2,3.3-4.7,3.3c-3.2,0-5.1-2.1-5.1-5.5s2-5.6,5-5.6s4.9,2.1,4.9,5.3v0.8h-7.7v0.1
		c-0.1,0.8,0.2,1.6,0.8,2.2s1.3,0.9,2.1,0.9c1.1,0.1,2.1-0.5,2.5-1.5H139.4z M131.9,29h5.4c0-0.7-0.2-1.4-0.7-2
		c-0.5-0.5-1.2-0.8-1.9-0.8s-1.4,0.3-2,0.8C132.2,27.6,131.9,28.3,131.9,29L131.9,29z"/>
	<path id="Download-on-the_1_" class="st1" d="M53.8,9.4c0.9-0.1,1.9,0.3,2.5,1s1,1.6,0.8,2.6c0,2.3-1.2,3.6-3.4,3.6h-2.6V9.4H53.8z
		 M52.3,15.5h1.3c0.7,0,1.3-0.2,1.8-0.7s0.7-1.2,0.6-1.8c0.1-0.7-0.1-1.3-0.6-1.8s-1.1-0.8-1.8-0.7h-1.3V15.5z M58.4,13.8
		c-0.1-1,0.4-1.9,1.2-2.4s1.9-0.5,2.7,0s1.3,1.4,1.2,2.4c0.1,1-0.4,1.9-1.2,2.4s-1.9,0.5-2.7,0C58.8,15.7,58.3,14.8,58.4,13.8z
		 M62.4,13.8c0-1.2-0.5-1.9-1.4-1.9s-1.4,0.7-1.4,1.9s0.5,1.9,1.4,1.9S62.4,15,62.4,13.8L62.4,13.8z M70.2,16.5h-1.1l-1.1-4h-0.1
		l-1.1,4h-1.1l-1.5-5.4h1.1l1,4.1h0.1l1.1-4.1h1l1.1,4.1h0.1l1-4.1h1.1L70.2,16.5z M73,11.2h1v0.9h0.1c0.3-0.6,0.9-1,1.6-1
		c0.5,0,1.1,0.2,1.4,0.6c0.4,0.4,0.5,0.9,0.5,1.5v3.5h-1.1v-3.4c0-0.9-0.4-1.3-1.2-1.3c-0.4,0-0.7,0.1-1,0.4c-0.2,0.3-0.4,0.6-0.3,1
		v3.2h-1.1L73,11.2L73,11.2z M79.2,9h1.1v7.5h-1.1V9z M81.8,13.8c-0.1-1,0.4-1.9,1.2-2.4c0.8-0.5,1.9-0.5,2.7,0
		c0.8,0.5,1.3,1.4,1.2,2.4c0.1,1-0.4,1.9-1.2,2.4c-0.8,0.5-1.9,0.5-2.7,0C82.2,15.8,81.7,14.8,81.8,13.8L81.8,13.8z M85.8,13.8
		c0-1.2-0.5-1.9-1.4-1.9S83,12.6,83,13.8s0.5,1.9,1.4,1.9C85.2,15.7,85.8,15,85.8,13.8L85.8,13.8z M88,15c0-1,0.7-1.5,2-1.6l1.4-0.1
		v-0.5c0-0.6-0.4-0.9-1.1-0.9c-0.6,0-1,0.2-1.1,0.6h-1c0.1-0.9,1-1.5,2.2-1.5c1.4,0,2.1,0.7,2.1,1.8v3.7h-1v-0.8h-0.1
		c-0.3,0.6-1,0.9-1.6,0.8c-0.5,0-0.9-0.1-1.3-0.4C88.2,15.9,88,15.5,88,15L88,15z M91.4,14.6v-0.5l-1.3,0.1c-0.7,0-1.1,0.3-1.1,0.8
		s0.4,0.8,1,0.8c0.3,0,0.7-0.1,0.9-0.3C91.3,15.2,91.4,14.9,91.4,14.6z M93.9,13.8c0-1.7,0.9-2.8,2.2-2.8c0.7,0,1.3,0.3,1.7,0.9h0.1
		v-3H99v7.5h-1v-0.9h-0.1c-0.3,0.6-1,1-1.7,0.9C94.8,16.6,93.9,15.6,93.9,13.8z M95,13.8c0,1.1,0.5,1.8,1.4,1.8s1.4-0.7,1.4-1.8
		S97.2,12,96.4,12C95.5,12,95,12.7,95,13.8L95,13.8z M103.3,13.8c-0.1-1,0.4-1.9,1.2-2.4s1.9-0.5,2.7,0s1.3,1.4,1.2,2.4
		c0.1,1-0.4,1.9-1.2,2.4c-0.8,0.5-1.9,0.5-2.7,0C103.7,15.7,103.2,14.8,103.3,13.8L103.3,13.8z M107.3,13.8c0-1.2-0.5-1.9-1.4-1.9
		s-1.4,0.7-1.4,1.9s0.5,1.9,1.4,1.9S107.3,15,107.3,13.8z M109.8,11.2h1v0.9h0.1c0.3-0.6,0.9-1,1.6-1c0.5,0,1.1,0.2,1.4,0.6
		c0.4,0.4,0.5,0.9,0.5,1.5v3.5h-1v-3.4c0-0.9-0.4-1.3-1.2-1.3c-0.4,0-0.7,0.1-1,0.4c-0.2,0.3-0.4,0.6-0.3,1v3.2h-1.1V11.2z
		 M120.4,9.8v1.4h1.2v0.9h-1.2v2.8c0,0.6,0.2,0.8,0.8,0.8c0.1,0,0.3,0,0.4,0v0.9c-0.2,0-0.4,0.1-0.6,0.1c-1.2,0-1.7-0.4-1.7-1.5v-3
		h-0.9v-0.9h0.9V9.8H120.4z M123,9h1.1v3h0.1c0.3-0.6,0.9-1,1.6-1c0.5,0,1,0.2,1.4,0.6s0.5,0.9,0.5,1.4v3.5h-1.1v-3.2
		c0-0.9-0.4-1.3-1.2-1.3c-0.4,0-0.7,0.1-1,0.4c-0.3,0.3-0.4,0.6-0.4,1v3.1h-1.1L123,9z M133.9,15.1c-0.3,1-1.3,1.7-2.3,1.6
		c-0.7,0-1.4-0.3-1.9-0.8c-0.5-0.5-0.7-1.3-0.6-2c-0.1-0.7,0.1-1.4,0.6-2c0.5-0.5,1.2-0.8,1.9-0.8c1.5,0,2.4,1,2.4,2.7v0.4h-3.8v0.1
		c0,0.4,0.1,0.8,0.4,1.1s0.7,0.5,1.1,0.5c0.5,0.1,1-0.2,1.3-0.7L133.9,15.1z M130.1,13.4h2.7c0-0.4-0.1-0.7-0.4-1s-0.6-0.4-1-0.4
		s-0.7,0.1-1,0.4C130.3,12.6,130.1,13,130.1,13.4L130.1,13.4z"/>
	<path id="Icon_2_" class="st1" d="M38.2,23.3c0-2,1.1-3.9,2.8-5c-1.1-1.6-2.9-2.5-4.8-2.6c-2-0.2-4,1.2-5,1.2s-2.6-1.2-4.3-1.1
		c-2.2,0.1-4.3,1.3-5.4,3.3c-2.3,4-0.6,9.9,1.6,13.1c1.1,1.6,2.4,3.4,4.1,3.3s2.3-1.1,4.3-1.1s2.6,1.1,4.3,1c1.8,0,2.9-1.6,4-3.2
		c0.8-1.1,1.4-2.4,1.8-3.7C39.6,27.6,38.2,25.6,38.2,23.3L38.2,23.3z M34.9,13.6c1-1.2,1.4-2.7,1.3-4.2c-1.5,0.2-2.9,0.9-3.8,2
		c-1,1.1-1.5,2.6-1.4,4C32.5,15.4,34,14.7,34.9,13.6L34.9,13.6z"/>
</g>
</svg>
