<?xml version="1.0" encoding="utf-8"?>
<!-- Generator: Adobe Illustrator 24.3.0, SVG Export Plug-In . SVG Version: 6.00 Build 0)  -->
<svg version="1.2" baseProfile="tiny" id="图层_1"
	 xmlns="http://www.w3.org/2000/svg" xmlns:xlink="http://www.w3.org/1999/xlink" x="0px" y="0px" viewBox="0 0 16 16"
	 overflow="visible" xml:space="preserve">
<path fill="#E6E6E6" d="M0.058,7.969c-0.001,4.401,3.567,7.97,7.968,7.97c4.401,0.001,7.97-3.567,7.97-7.968
	c0-0.001,0-0.002,0-0.002c0.001-4.401-3.567-7.97-7.968-7.97s-7.97,3.567-7.97,7.968C0.058,7.968,0.058,7.968,0.058,7.969z"/>
<path fill="#CECECE" d="M4.202,14.962v-0.936c0-1.408,1.142-2.55,2.55-2.55h2.55c1.408,0,2.55,1.142,2.55,2.55v0.936
	c-1.135,0.622-2.439,0.976-3.825,0.976S5.338,15.584,4.202,14.962z"/>
<path fill="#A8A8A8" d="M5.506,7.969c-0.001,1.392,1.128,2.522,2.52,2.522c1.392,0.001,2.522-1.128,2.522-2.52
	c0-0.001,0-0.002,0-0.002c0-1.392-1.128-2.521-2.521-2.521S5.506,6.576,5.506,7.969C5.506,7.969,5.506,7.969,5.506,7.969z"/>
</svg>
