<svg width="20" height="21" viewBox="0 0 20 21" fill="none" xmlns="http://www.w3.org/2000/svg">
<path fill-rule="evenodd" clip-rule="evenodd" d="M1.76749 2.23035C2.76914 1.27817 4.16751 0.830078 5.77096 0.830078H14.2383C15.8457 0.830078 17.2449 1.27783 18.2448 2.23107C19.2504 3.18965 19.7548 4.56646 19.75 6.22414V15.3484C19.75 17.0061 19.243 18.3844 18.2371 19.3447C17.2366 20.3001 15.8377 20.7509 14.229 20.7509H5.77096C4.16301 20.7509 2.76302 20.2907 1.76225 19.3208C0.757741 18.3472 0.25 16.9517 0.25 15.2727V6.2231C0.25 4.56427 0.760038 3.18803 1.76749 2.23035ZM2.80096 3.31752C2.1571 3.92957 1.75 4.87484 1.75 6.2231V15.2727C1.75 16.6482 2.1594 17.6168 2.8062 18.2437C3.45673 18.8742 4.44222 19.2509 5.77096 19.2509H14.229C15.5663 19.2509 16.5528 18.879 17.2013 18.2599C17.8444 17.6458 18.25 16.6978 18.25 15.3484V6.2231L18.25 6.22079C18.2541 4.87195 17.8507 3.92771 17.2098 3.31679C16.5631 2.70029 15.5768 2.33008 14.2383 2.33008H5.77096C4.43772 2.33008 3.45061 2.69995 2.80096 3.31752Z" fill="#454545"/>
</svg>
