<?xml version="1.0" encoding="utf-8"?>
<!-- Generator: Adobe Illustrator 25.3.1, SVG Export Plug-In . SVG Version: 6.00 Build 0)  -->
<svg version="1.1" id="图层_1" xmlns="http://www.w3.org/2000/svg" xmlns:xlink="http://www.w3.org/1999/xlink" x="0px" y="0px"
	 width="170px" height="56px" viewBox="0 0 170 56" style="enable-background:new 0 0 170 56;" xml:space="preserve">
<style type="text/css">
	.st0{fill:#191C20;}
	.st1{fill:#FFFFFF;}
	.st2{fill-rule:evenodd;clip-rule:evenodd;fill:#FFFFFF;}
	.st3{fill-rule:evenodd;clip-rule:evenodd;fill:url(#SVGID_1_);}
	.st4{fill-rule:evenodd;clip-rule:evenodd;fill:url(#SVGID_2_);}
	.st5{fill-rule:evenodd;clip-rule:evenodd;fill:url(#SVGID_3_);}
	.st6{fill-rule:evenodd;clip-rule:evenodd;fill:url(#SVGID_4_);}
	.st7{opacity:0.2;fill-rule:evenodd;clip-rule:evenodd;enable-background:new    ;}
	.st8{opacity:0.12;fill-rule:evenodd;clip-rule:evenodd;enable-background:new    ;}
	.st9{opacity:0.25;fill-rule:evenodd;clip-rule:evenodd;fill:#FFFFFF;enable-background:new    ;}
</style>
<g>
	<path class="st0" d="M162,56H8c-4.418,0-8-3.582-8-8V8c0-4.418,3.582-8,8-8h154c4.418,0,8,3.582,8,8v40
		C170,52.418,166.418,56,162,56z"/>
</g>
<g>
	<path class="st1" d="M89.334,19.141c-1.115,0-2.055-0.39-2.799-1.158c-0.737-0.747-1.149-1.776-1.131-2.827
		c0-1.121,0.381-2.071,1.131-2.824c0.74-0.768,1.681-1.158,2.796-1.158c1.103,0,2.043,0.39,2.799,1.158
		c0.75,0.777,1.131,1.727,1.131,2.824c-0.012,1.124-0.393,2.074-1.131,2.824C91.389,18.754,90.449,19.141,89.334,19.141z
		 M56.149,19.141c-1.091,0-2.037-0.384-2.811-1.143c-0.768-0.756-1.158-1.711-1.158-2.839s0.39-2.083,1.158-2.839
		c0.759-0.759,1.705-1.143,2.811-1.143c0.541,0,1.066,0.108,1.57,0.326c0.495,0.212,0.897,0.501,1.195,0.854l0.074,0.089
		l-0.833,0.817l-0.086-0.101c-0.47-0.559-1.1-0.833-1.933-0.833c-0.744,0-1.392,0.264-1.926,0.787
		c-0.538,0.525-0.811,1.214-0.811,2.046s0.273,1.521,0.811,2.046c0.535,0.522,1.183,0.787,1.926,0.787
		c0.793,0,1.459-0.264,1.979-0.787c0.307-0.307,0.498-0.737,0.565-1.281h-2.67v-1.149h3.816l0.015,0.104
		c0.028,0.194,0.055,0.393,0.055,0.578c0,1.06-0.32,1.917-0.952,2.55C58.226,18.76,57.285,19.141,56.149,19.141z M100.271,18.978
		h-1.177l-3.604-5.767l0.031,1.038v4.725h-1.177V11.34h1.343l0.037,0.058l3.389,5.432l-0.031-1.035V11.34h1.189L100.271,18.978
		L100.271,18.978z M80.491,18.978h-1.192V12.49h-2.068V11.34h5.324v1.149h-2.068v6.489H80.491z M76.261,18.978h-1.189V11.34h1.189
		V18.978z M69.578,18.978h-1.189V12.49h-2.068V11.34h5.324v1.149h-2.068V18.978z M65.569,18.966h-4.559V11.34h4.559v1.149h-3.367
		v2.095h3.039v1.137h-3.039v2.095h3.367V18.966z M87.407,17.193c0.532,0.532,1.177,0.799,1.926,0.799
		c0.771,0,1.401-0.261,1.926-0.799c0.522-0.522,0.787-1.207,0.787-2.034s-0.264-1.515-0.783-2.034
		c-0.532-0.532-1.18-0.799-1.926-0.799c-0.771,0-1.401,0.261-1.923,0.799c-0.522,0.522-0.787,1.207-0.787,2.034
		S86.888,16.674,87.407,17.193L87.407,17.193z"/>
	<path class="st2" d="M85.293,29.643c-2.903,0-5.257,2.203-5.257,5.241c0,3.011,2.369,5.242,5.257,5.242
		c2.903,0,5.257-2.218,5.257-5.242C90.55,31.846,88.197,29.643,85.293,29.643z M85.293,38.049c-1.588,0-2.956-1.315-2.956-3.177
		c0-1.89,1.37-3.177,2.956-3.177c1.588,0,2.956,1.287,2.956,3.177C88.252,36.746,86.882,38.049,85.293,38.049z M73.824,29.643
		c-2.903,0-5.257,2.203-5.257,5.241c0,3.011,2.369,5.242,5.257,5.242c2.903,0,5.257-2.218,5.257-5.242
		C79.081,31.846,76.725,29.643,73.824,29.643z M73.824,38.049c-1.588,0-2.956-1.315-2.956-3.177c0-1.89,1.37-3.177,2.956-3.177
		c1.588,0,2.956,1.287,2.956,3.177C76.78,36.746,75.413,38.049,73.824,38.049z M60.177,31.243v2.218h5.324
		c-0.163,1.244-0.575,2.163-1.204,2.793c-0.78,0.78-1.985,1.628-4.108,1.628c-3.272,0-5.831-2.642-5.831-5.914
		s2.559-5.914,5.831-5.914c1.767,0,3.054,0.697,4.009,1.588l1.573-1.573c-1.327-1.272-3.094-2.246-5.57-2.246
		c-4.489,0-8.256,3.656-8.256,8.133c0,4.489,3.764,8.133,8.256,8.133c2.424,0,4.243-0.793,5.681-2.286
		c1.466-1.466,1.929-3.533,1.929-5.202c0-0.519-0.04-0.986-0.123-1.383h-7.515C60.177,31.216,60.177,31.243,60.177,31.243z
		 M115.999,32.97c-0.439-1.177-1.767-3.34-4.489-3.34c-2.698,0-4.94,2.123-4.94,5.242c0,2.943,2.218,5.241,5.202,5.241
		c2.396,0,3.791-1.466,4.366-2.326l-1.779-1.192c-0.59,0.876-1.41,1.45-2.575,1.45c-1.177,0-2-0.535-2.547-1.588l7.008-2.903
		C116.245,33.557,115.999,32.97,115.999,32.97z M108.853,34.721c-0.055-2.025,1.573-3.054,2.738-3.054
		c0.919,0,1.684,0.452,1.945,1.109L108.853,34.721z M103.159,39.8h2.301V24.401h-2.301V39.8z M99.38,30.807h-0.083
		c-0.519-0.618-1.505-1.177-2.765-1.177c-2.615,0-5.023,2.301-5.023,5.257c0,2.943,2.396,5.217,5.023,5.217
		c1.244,0,2.246-0.562,2.765-1.192h0.083v0.753c0,2-1.069,3.079-2.793,3.079c-1.41,0-2.286-1.014-2.642-1.862l-2,0.836
		c0.575,1.383,2.108,3.094,4.639,3.094c2.698,0,4.983-1.588,4.983-5.463v-9.405h-2.175v0.863
		C99.396,30.807,99.38,30.807,99.38,30.807z M96.738,38.049c-1.588,0-2.916-1.327-2.916-3.161c0-1.85,1.327-3.189,2.916-3.189
		c1.573,0,2.793,1.355,2.793,3.189C99.546,36.721,98.314,38.049,96.738,38.049z M126.774,24.401h-5.503V39.8h2.301v-5.831h3.205
		c2.547,0,5.051-1.847,5.051-4.778S129.333,24.401,126.774,24.401z M126.841,31.818h-3.272v-5.285h3.272
		c1.724,0,2.698,1.423,2.698,2.642C129.539,30.383,128.553,31.818,126.841,31.818z M141.051,29.615c-1.671,0-3.395,0.74-4.108,2.353
		l2.04,0.848c0.439-0.848,1.244-1.137,2.095-1.137c1.192,0,2.396,0.713,2.424,1.985v0.163c-0.412-0.234-1.315-0.59-2.396-0.59
		c-2.203,0-4.437,1.204-4.437,3.463c0,2.068,1.807,3.395,3.819,3.395c1.545,0,2.396-0.697,2.928-1.505h0.083v1.192h2.218v-5.899
		C145.718,31.136,143.678,29.615,141.051,29.615z M140.762,38.049c-0.753,0-1.807-0.369-1.807-1.315
		c0-1.192,1.315-1.644,2.436-1.644c1.014,0,1.493,0.218,2.095,0.519C143.322,36.992,142.154,38.036,140.762,38.049z M153.811,29.944
		l-2.642,6.679h-0.083l-2.738-6.679h-2.476l4.108,9.337l-2.341,5.189h2.396l6.32-14.526H153.811z M133.097,39.8h2.301V24.401h-2.301
		V39.8z"/>
	
		<linearGradient id="SVGID_1_" gradientUnits="userSpaceOnUse" x1="3971.4402" y1="788.4547" x2="3969.6641" y2="787.5378" gradientTransform="matrix(11.64 0 0 -22.55 -46199.3555 17793.2188)">
		<stop  offset="0" style="stop-color:#00A0FF"/>
		<stop  offset="0.0066" style="stop-color:#00A1FF"/>
		<stop  offset="0.2601" style="stop-color:#00BEFF"/>
		<stop  offset="0.5122" style="stop-color:#00D2FF"/>
		<stop  offset="0.7604" style="stop-color:#00DFFF"/>
		<stop  offset="1" style="stop-color:#00E3FF"/>
	</linearGradient>
	<path class="st3" d="M14.208,12.121c-0.356,0.384-0.562,0.971-0.562,1.739v27.243c0,0.768,0.206,1.355,0.575,1.724l0.095,0.083
		l15.264-15.264v-0.341L14.303,12.038L14.208,12.121z"/>
	
		<linearGradient id="SVGID_2_" gradientUnits="userSpaceOnUse" x1="3870.449" y1="861.7755" x2="3867.1892" y2="861.7755" gradientTransform="matrix(9.145 0 0 -7.7 -35352.2188 6663.1509)">
		<stop  offset="0" style="stop-color:#FFE000"/>
		<stop  offset="0.4087" style="stop-color:#FFBD00"/>
		<stop  offset="0.7754" style="stop-color:#FFA500"/>
		<stop  offset="1" style="stop-color:#FF9C00"/>
	</linearGradient>
	<path class="st4" d="M34.657,32.749l-5.091-5.091v-0.356l5.091-5.091l0.111,0.068l6.022,3.423c1.724,0.971,1.724,2.575,0,3.558
		l-6.022,3.423C34.768,32.681,34.657,32.749,34.657,32.749z"/>
	
		<linearGradient id="SVGID_3_" gradientUnits="userSpaceOnUse" x1="4055.2495" y1="824.4337" x2="4053.3828" y2="822.0119" gradientTransform="matrix(15.02 0 0 -11.5775 -60877.9102 9575.1914)">
		<stop  offset="0" style="stop-color:#FF3A44"/>
		<stop  offset="1" style="stop-color:#C31162"/>
	</linearGradient>
	<path class="st5" d="M34.768,32.681l-5.202-5.202L14.208,42.839c0.562,0.602,1.505,0.67,2.559,0.083L34.768,32.681"/>
	
		<linearGradient id="SVGID_4_" gradientUnits="userSpaceOnUse" x1="4053.8115" y1="825.825" x2="4054.645" y2="824.7429" gradientTransform="matrix(15.02 0 0 -11.5715 -60877.9102 9559.0928)">
		<stop  offset="0" style="stop-color:#32A071"/>
		<stop  offset="0.0685" style="stop-color:#2DA771"/>
		<stop  offset="0.4762" style="stop-color:#15CF74"/>
		<stop  offset="0.8009" style="stop-color:#06E775"/>
		<stop  offset="1" style="stop-color:#00F076"/>
	</linearGradient>
	<path class="st6" d="M34.768,22.278L16.767,12.053c-1.054-0.602-2-0.519-2.559,0.083L29.566,27.48L34.768,22.278z"/>
	<path class="st7" d="M34.657,32.571L16.779,42.728c-0.999,0.575-1.89,0.535-2.464,0.012l-0.095,0.095l0.095,0.083
		c0.575,0.519,1.466,0.562,2.464-0.012L34.78,32.681L34.657,32.571z"/>
	<path class="st8" d="M40.79,29.08l-6.148,3.49l0.111,0.111l6.022-3.423c0.863-0.492,1.287-1.137,1.287-1.779
		C42.01,28.07,41.57,28.629,40.79,29.08z"/>
	<path class="st9" d="M16.767,12.231L40.79,25.879c0.78,0.439,1.22,1.014,1.287,1.601c0-0.642-0.424-1.287-1.287-1.779
		L16.767,12.053c-1.724-0.986-3.122-0.163-3.122,1.807v0.178C13.645,12.066,15.043,11.258,16.767,12.231z"/>
</g>
</svg>
