<svg width="48" height="48" viewBox="0 0 48 48" fill="none" xmlns="http://www.w3.org/2000/svg">
<circle cx="24" cy="24" r="24" fill="#FE4365"/>
<mask id="mask0_5915_63935" style="mask-type:alpha" maskUnits="userSpaceOnUse" x="13" y="12" width="22" height="24">
<path fill-rule="evenodd" clip-rule="evenodd" d="M13 12H34.881V36H13V12Z" fill="white"/>
</mask>
<g mask="url(#mask0_5915_63935)">
<path fill-rule="evenodd" clip-rule="evenodd" d="M31.1451 31.0229C30.0023 32.7168 26.5125 33.4213 23.2724 33.3603C21.4237 33.3252 19.6566 33.0415 18.452 32.5494C16.5999 31.7773 15.9166 29.7438 15.6906 27.5255C15.5074 25.3091 15.9234 22.9109 16.9743 21.457C18.1248 19.928 20.546 19.3943 23.1914 19.4439C25.9888 19.497 28.8776 20.1993 30.2854 21.057C32.8404 22.7481 32.6359 28.5485 31.1451 31.0229ZM23.1964 19.153L23.1911 19.4432L23.1964 19.153ZM34.8679 25.6365C34.7381 22.5143 33.628 20.1072 31.742 18.8585C31.7143 18.8405 31.6867 18.8228 31.6585 18.8058C30.4719 18.0827 28.6679 17.4948 26.6947 17.1475L28.5769 15.9881C28.6279 15.9562 28.6847 15.9165 28.7322 15.878C29.3742 15.3593 29.4738 14.4191 28.9551 13.7779C28.436 13.1363 27.495 13.0368 26.8533 13.5552L23.1422 16.5534L18.5488 12.3555C18.5286 12.3372 18.5053 12.3171 18.4842 12.2997C17.9006 11.8303 17.0469 11.9224 16.5768 12.5053C16.1071 13.0886 16.1993 13.9416 16.7827 14.4114L20.034 17.0269C18.0136 17.3698 15.9988 18.1735 14.7228 19.87C14.7126 19.8833 14.703 19.8966 14.6933 19.91C12.9126 22.3726 12.9061 25.874 13.0604 27.7422C13.0619 27.759 13.0635 27.7754 13.0653 27.7922C13.4441 31.5119 14.9144 33.9308 17.4349 34.9822C17.4411 34.9847 17.4473 34.9872 17.4532 34.99C18.9394 35.5965 20.9877 35.9537 23.2217 35.9959C24.5917 36.0216 26.65 35.9385 28.6772 35.3959C30.8625 34.8111 32.4287 33.8353 33.3321 32.4964C33.3572 32.4591 33.3815 32.421 33.4047 32.3822C34.4106 30.7125 34.9713 28.1277 34.8679 25.6365Z" fill="#FAFAFA"/>
</g>
<path fill-rule="evenodd" clip-rule="evenodd" d="M34.6853 28.6701C34.6762 28.5822 34.5496 28.581 34.5378 28.6685C34.3215 30.2573 33.254 31.7301 32.595 32.8193C32.5717 32.8579 32.5474 32.896 32.5219 32.9331C32.0166 33.6789 31.2967 34.3078 30.3844 34.8229C30.3589 34.8371 30.344 34.865 30.3471 34.8943L30.4102 35.4923C30.4146 35.5334 30.4519 35.5631 30.4927 35.5591L34.693 35.1199C34.7344 35.1155 34.7646 35.0787 34.7602 35.0376L34.6853 28.6701Z" fill="#FAFAFA"/>
<path fill-rule="evenodd" clip-rule="evenodd" d="M24.0856 28.8246C25.4598 28.8506 26.5952 27.7549 26.6212 26.3765C26.6472 24.9985 25.5539 23.8602 24.1798 23.8341C22.8053 23.808 21.6702 24.904 21.6442 26.2821C21.6182 27.6605 22.7114 28.7988 24.0856 28.8246ZM19.0728 25.9146C19.2998 23.707 20.9828 21.8891 23.156 21.5052C26.6774 20.8831 29.685 24.1073 28.8336 27.5781C28.6093 28.4915 28.1569 29.2664 27.4848 30.0065C27.7614 30.2457 28.0218 30.4709 28.2823 30.696C28.2659 30.7569 28.2498 30.8178 28.2337 30.8783C27.5622 31.0107 26.8954 31.183 26.2181 31.2666C24.8548 31.4349 23.4911 31.5865 22.1575 31.0336C20.1354 30.196 18.8502 28.0887 19.0728 25.9146Z" fill="#FAFAFA"/>
</svg>
