<svg width="200" height="64" viewBox="0 0 200 64" fill="none" xmlns="http://www.w3.org/2000/svg">
	<g clip-path="url(#clip0_20737_101725)">
		<path d="M61.8286 13.9795C61.0975 10.4836 60.1222 7.06326 57.9375 4.13814C55.9299 1.45014 53.3197 -0.173991 49.8501 0.0148617C47.2947 0.155452 45.1754 1.20044 43.9409 3.5443C42.7106 5.87768 43.2583 8.11873 44.8193 10.0261C46.8607 12.5211 47.7118 15.3623 47.7602 18.4783C47.7918 20.5095 47.617 22.5429 47.539 24.4776C45.4324 24.3034 43.6038 23.9823 41.7836 24.0327C36.9341 24.167 32.6112 25.9338 28.657 28.6512C24.8271 31.2846 21.7387 34.6567 18.9705 38.3498C17.9509 39.7095 16.887 41.0357 15.7895 42.3325C15.6104 42.5423 15.1469 42.5109 14.8141 42.5927C14.753 42.2339 14.5507 41.8226 14.6603 41.5267C14.8436 41.0357 15.1996 40.5993 15.5325 40.1775C19.573 35.0428 24.3699 30.7286 29.7988 27.09C32.6028 25.212 35.4215 23.3402 37.6672 20.7635C41.1727 16.7409 41.2506 11.2705 37.7683 7.35912C35.9482 5.31532 33.6329 3.92621 30.9891 3.26942C24.0813 1.55296 17.9593 3.19178 12.7432 7.97185C9.27565 11.1488 7.07629 15.2259 5.10867 19.4121C2.03293 25.9569 0.40448 32.8752 0.0589864 40.0768C-0.162214 44.6743 0.204346 49.2235 1.74643 53.6175C4.50405 61.4758 12.975 65.7481 20.9382 63.2657C23.087 62.5964 24.9429 61.4947 26.0869 59.4635C26.9674 57.9002 26.841 56.3726 25.6234 55.0654C24.7238 54.1001 23.7358 53.2146 22.7731 52.3081C21.5933 51.2002 20.3483 50.1573 19.2233 48.9969C18.2163 47.9582 17.7234 46.609 18.0352 45.201C18.309 43.965 18.7641 42.7102 19.4066 41.6212C22.5877 36.2326 27.2118 32.4681 32.9588 30.034C35.3836 29.0079 37.9095 28.54 40.5533 28.6932C43.7449 28.8799 45.5166 31.165 44.832 34.2685C44.7856 34.4783 44.7203 34.684 44.6655 34.8938C43.9282 37.7182 42.1986 40.0222 40.7029 42.4521C38.2023 46.5145 35.6764 50.5644 33.2685 54.6814C32.0171 56.8217 32.4869 58.7396 34.345 60.4015C35.6743 61.5913 37.1827 62.4474 38.8849 62.9888C43.6185 64.4933 48.3459 64.1995 53.0353 62.844C57.0127 61.6962 59.5829 59.069 60.6446 55.0675C61.0723 53.458 61.4157 51.8213 61.679 50.1783C62.5533 44.7183 62.9662 39.2122 63.1284 33.6894C63.3222 27.0795 63.1895 20.4823 61.8286 13.9753V13.9795Z" fill="#FE4365"/>
	</g>
	<path d="M100.639 20.536V43H95.1672V33.752H86.6552V43H81.1832V20.536H86.6552V29.336H95.1672V20.536H100.639ZM103.501 34.04C103.501 32.2053 103.843 30.5947 104.525 29.208C105.229 27.8213 106.179 26.7547 107.373 26.008C108.568 25.2613 109.901 24.888 111.373 24.888C112.632 24.888 113.731 25.144 114.669 25.656C115.629 26.168 116.365 26.84 116.877 27.672V25.144H122.349V43H116.877V40.472C116.344 41.304 115.597 41.976 114.637 42.488C113.699 43 112.6 43.256 111.341 43.256C109.891 43.256 108.568 42.8827 107.373 42.136C106.179 41.368 105.229 40.2907 104.525 38.904C103.843 37.496 103.501 35.8747 103.501 34.04ZM116.877 34.072C116.877 32.7067 116.493 31.6293 115.725 30.84C114.979 30.0507 114.061 29.656 112.973 29.656C111.885 29.656 110.957 30.0507 110.189 30.84C109.443 31.608 109.069 32.6747 109.069 34.04C109.069 35.4053 109.443 36.4933 110.189 37.304C110.957 38.0933 111.885 38.488 112.973 38.488C114.061 38.488 114.979 38.0933 115.725 37.304C116.493 36.5147 116.877 35.4373 116.877 34.072ZM131.78 27.672C132.314 26.84 133.05 26.168 133.988 25.656C134.927 25.144 136.026 24.888 137.284 24.888C138.756 24.888 140.09 25.2613 141.284 26.008C142.479 26.7547 143.418 27.8213 144.1 29.208C144.804 30.5947 145.156 32.2053 145.156 34.04C145.156 35.8747 144.804 37.496 144.1 38.904C143.418 40.2907 142.479 41.368 141.284 42.136C140.09 42.8827 138.756 43.256 137.284 43.256C136.047 43.256 134.948 43 133.988 42.488C133.05 41.976 132.314 41.3147 131.78 40.504V51.512H126.308V25.144H131.78V27.672ZM139.588 34.04C139.588 32.6747 139.204 31.608 138.436 30.84C137.69 30.0507 136.762 29.656 135.652 29.656C134.564 29.656 133.636 30.0507 132.868 30.84C132.122 31.6293 131.748 32.7067 131.748 34.072C131.748 35.4373 132.122 36.5147 132.868 37.304C133.636 38.0933 134.564 38.488 135.652 38.488C136.74 38.488 137.668 38.0933 138.436 37.304C139.204 36.4933 139.588 35.4053 139.588 34.04ZM153.499 27.672C154.032 26.84 154.768 26.168 155.707 25.656C156.646 25.144 157.744 24.888 159.003 24.888C160.475 24.888 161.808 25.2613 163.003 26.008C164.198 26.7547 165.136 27.8213 165.819 29.208C166.523 30.5947 166.875 32.2053 166.875 34.04C166.875 35.8747 166.523 37.496 165.819 38.904C165.136 40.2907 164.198 41.368 163.003 42.136C161.808 42.8827 160.475 43.256 159.003 43.256C157.766 43.256 156.667 43 155.707 42.488C154.768 41.976 154.032 41.3147 153.499 40.504V51.512H148.027V25.144H153.499V27.672ZM161.307 34.04C161.307 32.6747 160.923 31.608 160.155 30.84C159.408 30.0507 158.48 29.656 157.371 29.656C156.283 29.656 155.355 30.0507 154.587 30.84C153.84 31.6293 153.467 32.7067 153.467 34.072C153.467 35.4373 153.84 36.5147 154.587 37.304C155.355 38.0933 156.283 38.488 157.371 38.488C158.459 38.488 159.387 38.0933 160.155 37.304C160.923 36.4933 161.307 35.4053 161.307 34.04ZM172.498 23.288C171.538 23.288 170.748 23.0107 170.13 22.456C169.532 21.88 169.234 21.176 169.234 20.344C169.234 19.4907 169.532 18.7867 170.13 18.232C170.748 17.656 171.538 17.368 172.498 17.368C173.436 17.368 174.204 17.656 174.802 18.232C175.42 18.7867 175.73 19.4907 175.73 20.344C175.73 21.176 175.42 21.88 174.802 22.456C174.204 23.0107 173.436 23.288 172.498 23.288ZM175.218 25.144V43H169.746V25.144H175.218ZM190.063 24.952C192.154 24.952 193.818 25.6347 195.055 27C196.314 28.344 196.943 30.2 196.943 32.568V43H191.503V33.304C191.503 32.1093 191.194 31.1813 190.575 30.52C189.957 29.8587 189.125 29.528 188.079 29.528C187.034 29.528 186.202 29.8587 185.583 30.52C184.965 31.1813 184.655 32.1093 184.655 33.304V43H179.183V25.144H184.655V27.512C185.21 26.7227 185.957 26.104 186.895 25.656C187.834 25.1867 188.89 24.952 190.063 24.952Z" fill="#FAFAFA"/>
	<defs>
		<clipPath id="clip0_20737_101725">
			<rect width="63.2" height="64" fill="white"/>
		</clipPath>
	</defs>
</svg>
