<?xml version="1.0" encoding="utf-8"?>
<!-- Generator: Adobe Illustrator 26.2.1, SVG Export Plug-In . SVG Version: 6.00 Build 0)  -->
<svg version="1.1" id="图层_1" xmlns="http://www.w3.org/2000/svg" xmlns:xlink="http://www.w3.org/1999/xlink" x="0px" y="0px"
	 viewBox="0 0 200 52.731" enable-background="new 0 0 200 52.731" xml:space="preserve">
<g>
	<defs>
		<rect id="SVGID_1_" x="2.142" y="2.186" width="47.754" height="48.358"/>
	</defs>
	<clipPath id="SVGID_00000070797929582625138210000003079202536209861512_">
		<use xlink:href="#SVGID_1_"  overflow="visible"/>
	</clipPath>
	<g clip-path="url(#SVGID_00000070797929582625138210000003079202536209861512_)">
		<path fill="#FE4365" d="M48.859,12.749c-0.552-2.642-1.289-5.226-2.94-7.436c-1.517-2.031-3.489-3.258-6.111-3.116
			c-1.931,0.106-3.532,0.896-4.465,2.667c-0.93,1.763-0.516,3.456,0.664,4.898c1.542,1.885,2.186,4.032,2.222,6.386
			c0.024,1.535-0.108,3.071-0.167,4.533c-1.592-0.132-2.973-0.374-4.349-0.336c-3.664,0.101-6.931,1.436-9.918,3.49
			c-2.894,1.99-5.227,4.538-7.319,7.328c-0.77,1.027-1.574,2.029-2.404,3.009c-0.135,0.159-0.486,0.135-0.737,0.197
			c-0.046-0.271-0.199-0.582-0.116-0.805c0.139-0.371,0.407-0.701,0.659-1.019c3.053-3.88,6.678-7.14,10.78-9.889
			c2.119-1.419,4.249-2.833,5.945-4.78c2.649-3.039,2.708-7.173,0.076-10.128c-1.375-1.544-3.125-2.594-5.122-3.09
			c-5.22-1.297-9.845-0.059-13.787,3.553c-2.62,2.401-4.282,5.481-5.769,8.644c-2.324,4.945-3.554,10.173-3.816,15.614
			c-0.167,3.474,0.11,6.911,1.275,10.231c2.084,5.938,8.484,9.166,14.501,7.29c1.624-0.506,3.026-1.338,3.89-2.873
			c0.665-1.181,0.57-2.335-0.35-3.323c-0.68-0.729-1.426-1.398-2.154-2.083c-0.891-0.837-1.832-1.625-2.682-2.502
			c-0.761-0.785-1.133-1.804-0.898-2.868c0.207-0.934,0.551-1.882,1.036-2.705c2.404-4.072,5.898-6.916,10.24-8.755
			c1.832-0.775,3.741-1.129,5.738-1.013c2.412,0.141,3.75,1.868,3.233,4.213c-0.035,0.159-0.084,0.314-0.126,0.472
			c-0.557,2.134-1.864,3.875-2.994,5.711c-1.889,3.07-3.798,6.13-5.617,9.24c-0.946,1.617-0.591,3.066,0.813,4.322
			c1.004,0.899,2.144,1.546,3.43,1.955c3.577,1.137,7.149,0.915,10.692-0.109c3.005-0.867,4.947-2.852,5.75-5.876
			c0.323-1.216,0.583-2.453,0.782-3.694c0.661-4.126,0.973-8.286,1.095-12.459c0.146-4.994,0.046-9.979-0.982-14.896V12.749z"/>
	</g>
</g>
<path fill="#121212" d="M90.437,13.569V38.53h-6.08V28.253H74.9V38.53h-6.08V13.569h6.08v9.776h9.457v-9.776H90.437z M93.62,28.572
	c0-2.038,0.379-3.828,1.139-5.369c0.783-1.541,1.837-2.726,3.163-3.555c1.327-0.83,2.808-1.244,4.444-1.244
	c1.399,0,2.62,0.283,3.664,0.853c1.067,0.569,1.883,1.317,2.452,2.238v-2.808h6.08v19.839h-6.08v-2.808
	c-0.593,0.925-1.422,1.672-2.489,2.238c-1.043,0.569-2.265,0.853-3.664,0.853c-1.613,0-3.081-0.415-4.408-1.244
	c-1.327-0.853-2.383-2.051-3.163-3.591C93.999,32.414,93.62,30.61,93.62,28.572z M108.482,28.609c0-1.517-0.428-2.716-1.28-3.591
	c-0.83-0.876-1.85-1.317-3.058-1.317c-1.208,0-2.242,0.438-3.094,1.317c-0.83,0.853-1.244,2.038-1.244,3.555
	c0,1.517,0.415,2.726,1.244,3.627c0.853,0.876,1.883,1.317,3.094,1.317c1.208,0,2.229-0.438,3.058-1.317
	C108.054,31.321,108.482,30.126,108.482,28.609z M125.04,21.498c0.593-0.925,1.409-1.672,2.452-2.238
	c1.043-0.566,2.265-0.853,3.664-0.853c1.636,0,3.117,0.415,4.444,1.244s2.37,2.015,3.13,3.555c0.783,1.541,1.172,3.331,1.172,5.369
	s-0.392,3.841-1.172,5.405c-0.76,1.541-1.801,2.739-3.13,3.591c-1.327,0.83-2.808,1.244-4.444,1.244
	c-1.376,0-2.597-0.283-3.664-0.853c-1.043-0.569-1.86-1.304-2.452-2.205V47.99h-6.08V18.694h6.08V21.498z M133.717,28.572
	c0-1.517-0.428-2.703-1.28-3.555c-0.83-0.876-1.86-1.317-3.094-1.317c-1.208,0-2.242,0.438-3.094,1.317
	c-0.83,0.876-1.244,2.074-1.244,3.591c0,1.517,0.415,2.716,1.244,3.591c0.853,0.876,1.883,1.317,3.094,1.317
	c1.208,0,2.238-0.438,3.094-1.317C133.289,31.298,133.717,30.09,133.717,28.572z M149.172,21.498
	c0.593-0.925,1.409-1.672,2.452-2.238c1.043-0.569,2.265-0.853,3.664-0.853c1.636,0,3.117,0.415,4.444,1.244s2.37,2.015,3.13,3.555
	c0.783,1.541,1.172,3.331,1.172,5.369s-0.392,3.841-1.172,5.405c-0.76,1.541-1.804,2.739-3.13,3.591
	c-1.327,0.83-2.808,1.244-4.444,1.244c-1.376,0-2.597-0.283-3.664-0.853c-1.043-0.569-1.86-1.304-2.452-2.205V47.99h-6.08V18.694
	h6.08V21.498z M157.849,28.572c0-1.517-0.428-2.703-1.28-3.555c-0.83-0.876-1.86-1.317-3.094-1.317
	c-1.208,0-2.238,0.438-3.094,1.317c-0.83,0.876-1.244,2.074-1.244,3.591c0,1.517,0.415,2.716,1.244,3.591
	c0.853,0.876,1.883,1.317,3.094,1.317c1.211,0,2.242-0.438,3.094-1.317C157.421,31.298,157.849,30.09,157.849,28.572z
	 M170.281,16.627c-1.067,0-1.945-0.309-2.63-0.925c-0.665-0.639-0.994-1.422-0.994-2.347c0-0.948,0.332-1.731,0.994-2.347
	c0.688-0.639,1.564-0.961,2.63-0.961c1.043,0,1.896,0.319,2.561,0.961c0.688,0.616,1.03,1.399,1.03,2.347
	c0,0.925-0.346,1.705-1.03,2.347C172.178,16.317,171.325,16.627,170.281,16.627z M173.303,18.687v19.839h-6.08V18.687H173.303z
	 M189.798,18.473c2.324,0,4.171,0.757,5.547,2.275c1.399,1.494,2.097,3.555,2.097,6.185v11.59h-6.044V27.756
	c0-1.327-0.342-2.36-1.03-3.094s-1.613-1.103-2.775-1.103c-1.162,0-2.087,0.369-2.775,1.103s-1.03,1.764-1.03,3.094V38.53h-6.08
	V18.687h6.08v2.63c0.616-0.876,1.445-1.564,2.489-2.061C187.323,18.737,188.495,18.473,189.798,18.473z"/>
</svg>
