<?xml version="1.0" encoding="utf-8"?>
<!-- Generator: Adobe Illustrator 26.2.1, SVG Export Plug-In . SVG Version: 6.00 Build 0)  -->
<svg version="1.1" id="图层_1" xmlns="http://www.w3.org/2000/svg" xmlns:xlink="http://www.w3.org/1999/xlink" x="0px" y="0px"
	 viewBox="0 0 48 48" enable-background="new 0 0 48 48" xml:space="preserve">
<circle fill="#FE4365" cx="24" cy="24" r="24"/>
<path fill="#FAFAFA" d="M36.358,14.626c-0.354-0.857-0.866-1.624-1.521-2.281c-0.655-0.656-1.421-1.169-2.277-1.525
	c-0.856-0.355-1.76-0.535-2.685-0.535c-0.004,0-0.008,0-0.011,0c-1.377,0-2.711,0.402-3.859,1.163
	c-0.22,0.116-0.52,0.316-0.973,0.664c-0.273,0.209-0.631,0.5-1.029,0.859c-0.398-0.359-0.756-0.65-1.029-0.859
	c-0.475-0.365-0.781-0.568-1.004-0.68c-0.025-0.016-0.049-0.032-0.074-0.048c-1.129-0.722-2.435-1.101-3.77-1.1
	c-1.875,0-3.637,0.732-4.963,2.06c-1.325,1.328-2.054,3.093-2.054,4.97v13.368c0,1.877,0.73,3.642,2.054,4.97
	c1.326,1.328,3.088,2.06,4.961,2.06c0.004,0,0.008,0,0.012,0c1.371,0,2.698-0.398,3.843-1.153c0.222-0.114,0.526-0.316,0.993-0.674
	c0.273-0.209,0.631-0.499,1.029-0.859c0.398,0.359,0.757,0.65,1.029,0.859c0.462,0.354,0.764,0.556,0.986,0.67
	c1.146,0.757,2.476,1.157,3.848,1.157c0.004,0,0.008,0,0.012,0c0.927,0,1.831-0.18,2.687-0.535c0.856-0.355,1.622-0.868,2.277-1.524
	c0.655-0.656,1.167-1.424,1.521-2.281c0.354-0.857,0.534-1.762,0.534-2.69V17.316C36.892,16.388,36.713,15.483,36.358,14.626z
	 M22.719,19.525c0.006-1.086,0.564-2.167,1.283-3.108c0.713,0.934,1.267,2.007,1.281,3.084c-0.005,0.366-0.147,0.721-0.392,0.976
	c-0.241,0.251-0.557,0.389-0.891,0.389c-0.334,0-0.65-0.138-0.891-0.389C22.869,20.228,22.729,19.883,22.719,19.525L22.719,19.525z
	 M25.281,28.475c-0.006,1.085-0.564,2.167-1.282,3.108c-0.713-0.934-1.267-2.006-1.282-3.084c0.005-0.366,0.147-0.721,0.392-0.977
	c0.241-0.251,0.557-0.389,0.891-0.389c0.334,0,0.65,0.138,0.891,0.389C25.131,27.772,25.271,28.117,25.281,28.475L25.281,28.475z
	 M34.529,30.684c0,0.616-0.119,1.217-0.355,1.787c-0.235,0.569-0.575,1.078-1.01,1.514c-0.435,0.435-0.943,0.776-1.51,1.011
	c-0.568,0.236-1.167,0.355-1.783,0.355c-0.003,0-0.005,0-0.008,0c-0.907,0-1.785-0.264-2.543-0.763l-0.328-0.245h-0.075
	c-0.276-0.186-0.753-0.544-1.288-1.023c1.304-1.61,1.996-3.252,2.014-4.801h0.003c0-0.992-0.373-1.928-1.051-2.634
	C25.915,25.177,24.969,24.77,24,24.77c-0.969,0-1.915,0.407-2.596,1.116c-0.671,0.699-1.043,1.622-1.05,2.603l-0.001,0
	c0,0.005,0,0.011,0,0.016c0,0.005,0,0.01,0,0.015h0.001c0.018,1.549,0.71,3.191,2.015,4.801c-0.535,0.478-1.012,0.837-1.288,1.022
	h-0.064l-0.33,0.238c-0.762,0.505-1.644,0.775-2.562,0.77c-1.243,0-2.411-0.485-3.29-1.366c-0.88-0.882-1.364-2.054-1.364-3.301
	V17.316c0-1.247,0.484-2.419,1.364-3.301c0.879-0.881,2.047-1.366,3.292-1.366c0.002,0,0.005,0,0.007,0
	c0.883,0,1.743,0.252,2.489,0.729c0.035,0.022,0.07,0.045,0.105,0.069l0.311,0.21h0.045c0.276,0.186,0.753,0.544,1.288,1.022
	c-1.305,1.61-1.997,3.252-2.015,4.801h-0.003c0,0.992,0.373,1.928,1.051,2.634c0.681,0.709,1.627,1.115,2.596,1.115
	c0.969,0,1.915-0.407,2.596-1.116c0.671-0.699,1.043-1.622,1.05-2.603l0.001,0c0-0.005,0-0.011,0-0.016c0-0.005,0-0.01,0-0.015
	h-0.001c-0.018-1.549-0.71-3.191-2.014-4.801c0.535-0.479,1.012-0.837,1.288-1.023h0.088l0.328-0.255
	c0.754-0.493,1.627-0.753,2.529-0.753c0.616-0.005,1.219,0.118,1.789,0.355c0.568,0.236,1.076,0.576,1.511,1.011
	c0.435,0.436,0.774,0.945,1.01,1.514c0.235,0.569,0.355,1.17,0.355,1.787V30.684z"/>
</svg>
