<?xml version="1.0" encoding="utf-8"?>
<!-- Generator: Adobe Illustrator 26.2.1, SVG Export Plug-In . SVG Version: 6.00 Build 0)  -->
<svg version="1.1" id="图层_1" xmlns="http://www.w3.org/2000/svg" xmlns:xlink="http://www.w3.org/1999/xlink" x="0px" y="0px"
	 viewBox="0 0 50 14" enable-background="new 0 0 50 14" xml:space="preserve">
<path fill="#FAFAFA" d="M22.94,3.903v6.223h-1.516v-2.56h-2.358v2.56h-1.517V3.903h1.516V6.34h2.358V3.903H22.94z M23.732,7.645
	c0-0.507,0.094-0.955,0.286-1.339c0.197-0.384,0.458-0.679,0.788-0.886c0.33-0.207,0.699-0.31,1.108-0.31
	c0.35,0,0.655,0.069,0.911,0.212c0.266,0.143,0.468,0.33,0.61,0.556v-0.7h1.516v4.948h-1.516V9.427
	c-0.148,0.231-0.354,0.418-0.62,0.556c-0.261,0.143-0.566,0.212-0.911,0.212c-0.404,0-0.768-0.103-1.098-0.31
	c-0.33-0.212-0.596-0.512-0.788-0.896C23.826,8.6,23.732,8.152,23.732,7.645z M27.435,7.655c0-0.379-0.108-0.674-0.32-0.896
	c-0.207-0.217-0.463-0.33-0.763-0.33s-0.556,0.108-0.773,0.33c-0.207,0.212-0.31,0.507-0.31,0.886c0,0.379,0.103,0.679,0.31,0.906
	c0.212,0.217,0.468,0.33,0.773,0.33s0.556-0.108,0.763-0.33C27.331,8.329,27.435,8.034,27.435,7.655z M31.565,5.882
	c0.148-0.231,0.35-0.418,0.61-0.556c0.261-0.143,0.566-0.212,0.911-0.212c0.409,0,0.778,0.103,1.108,0.31s0.591,0.502,0.778,0.886
	c0.197,0.384,0.29,0.832,0.29,1.339s-0.098,0.955-0.29,1.349c-0.187,0.384-0.448,0.684-0.778,0.896
	c-0.33,0.207-0.699,0.31-1.108,0.31c-0.345,0-0.645-0.069-0.911-0.212c-0.261-0.143-0.463-0.325-0.61-0.551v3.047h-1.516V5.183
	h1.516C31.565,5.183,31.565,5.882,31.565,5.882z M33.726,7.645c0-0.379-0.108-0.674-0.32-0.886c-0.207-0.217-0.463-0.33-0.773-0.33
	c-0.3,0-0.556,0.108-0.773,0.33c-0.207,0.217-0.31,0.517-0.31,0.896s0.103,0.674,0.31,0.896c0.212,0.217,0.468,0.33,0.773,0.33
	c0.3,0,0.556-0.108,0.773-0.33C33.618,8.324,33.726,8.024,33.726,7.645z M37.576,5.882c0.148-0.231,0.35-0.418,0.61-0.556
	c0.261-0.143,0.566-0.212,0.911-0.212c0.409,0,0.778,0.103,1.108,0.31s0.591,0.502,0.778,0.886c0.197,0.384,0.29,0.832,0.29,1.339
	s-0.098,0.955-0.29,1.349c-0.187,0.384-0.448,0.684-0.778,0.896c-0.33,0.207-0.699,0.31-1.108,0.31
	c-0.345,0-0.645-0.069-0.911-0.212c-0.261-0.143-0.463-0.325-0.61-0.551v3.047H36.06V5.183h1.516V5.882z M39.742,7.645
	c0-0.379-0.108-0.674-0.32-0.886c-0.207-0.217-0.463-0.33-0.773-0.33c-0.3,0-0.556,0.108-0.773,0.33
	c-0.207,0.217-0.31,0.517-0.31,0.896s0.103,0.674,0.31,0.896c0.212,0.217,0.468,0.33,0.773,0.33s0.556-0.108,0.773-0.33
	C39.634,8.324,39.742,8.024,39.742,7.645z M42.839,4.666c-0.266,0-0.482-0.079-0.655-0.231c-0.167-0.158-0.246-0.354-0.246-0.586
	c0-0.236,0.084-0.433,0.246-0.586c0.172-0.158,0.389-0.241,0.655-0.241c0.261,0,0.473,0.079,0.64,0.241
	c0.172,0.153,0.256,0.35,0.256,0.586c0,0.231-0.084,0.423-0.256,0.586C43.311,4.593,43.1,4.666,42.839,4.666z M43.592,5.183v4.943
	h-1.516V5.183H43.592z M47.703,5.129c0.581,0,1.039,0.187,1.383,0.566c0.35,0.374,0.522,0.886,0.522,1.541v2.89h-1.506V7.443
	c0-0.33-0.084-0.586-0.256-0.773s-0.404-0.276-0.689-0.276s-0.522,0.094-0.689,0.276c-0.172,0.182-0.256,0.438-0.256,0.773v2.683
	h-1.516V5.183h1.516v0.655c0.153-0.217,0.359-0.389,0.62-0.512C47.087,5.193,47.378,5.129,47.703,5.129z"/>
<path fill="#FE4365" d="M0.396,10.252v-6.54c0-1.26,0.657-2.378,1.756-2.992c1.1-0.614,2.396-0.586,3.468,0.076
	C6.014,1.039,6.38,1.315,6.715,1.62C7.05,1.315,7.417,1.039,7.81,0.796c1.073-0.661,2.37-0.69,3.47-0.076s1.756,1.732,1.756,2.992
	v6.54c0,1.26-0.657,2.378-1.756,2.992c-1.1,0.614-2.396,0.586-3.468-0.076c-0.394-0.243-0.76-0.519-1.095-0.824
	c-0.335,0.305-0.701,0.581-1.095,0.824c-1.072,0.661-2.369,0.689-3.468,0.076C1.053,12.63,0.396,11.511,0.396,10.252z M5.924,2.465
	C5.645,2.212,5.34,1.983,5.013,1.781c-0.71-0.438-1.568-0.456-2.296-0.05C1.989,2.138,1.554,2.878,1.554,3.712v6.54
	c0,0.834,0.435,1.574,1.163,1.981c0.728,0.406,1.586,0.388,2.296-0.05c0.327-0.202,0.632-0.431,0.911-0.683
	c-0.377-0.473-0.693-0.994-0.94-1.553L4.982,9.942c-0.255-0.589-0.198-1.26,0.154-1.796c0.35-0.534,0.941-0.853,1.58-0.853
	s1.23,0.319,1.58,0.853C8.648,8.682,8.705,9.354,8.45,9.942L8.448,9.946c-0.248,0.559-0.564,1.079-0.94,1.553
	c0.279,0.253,0.584,0.481,0.911,0.683c0.71,0.438,1.568,0.456,2.296,0.05c0.728-0.406,1.163-1.147,1.163-1.981v-6.54
	c0-0.834-0.435-1.574-1.163-1.981C9.987,1.324,9.129,1.342,8.419,1.78C8.092,1.983,7.787,2.212,7.508,2.465
	c0.377,0.473,0.693,0.994,0.94,1.553L8.45,4.022c0.255,0.589,0.198,1.26-0.154,1.796C7.946,6.351,7.355,6.67,6.716,6.67
	s-1.23-0.319-1.58-0.853C4.784,5.282,4.727,4.61,4.982,4.022l0.002-0.004C5.231,3.459,5.547,2.938,5.924,2.465z M7.45,9.185
	c0-0.14-0.041-0.279-0.123-0.403c-0.138-0.21-0.361-0.33-0.612-0.33s-0.474,0.12-0.612,0.33c-0.138,0.211-0.16,0.465-0.06,0.697
	c0.182,0.409,0.407,0.794,0.673,1.15c0.265-0.356,0.491-0.741,0.673-1.15C7.43,9.383,7.45,9.284,7.45,9.185z M6.043,4.484
	c-0.1,0.232-0.078,0.487,0.061,0.698c0.138,0.21,0.361,0.33,0.612,0.33s0.474-0.12,0.612-0.33c0.139-0.211,0.161-0.465,0.061-0.698
	C7.207,4.075,6.981,3.69,6.716,3.334C6.451,3.69,6.225,4.075,6.043,4.484z"/>
</svg>
