<?xml version="1.0" encoding="utf-8"?>
<!-- Generator: Adobe Illustrator 26.2.1, SVG Export Plug-In . SVG Version: 6.00 Build 0)  -->
<svg version="1.1" id="图层_1" xmlns="http://www.w3.org/2000/svg" xmlns:xlink="http://www.w3.org/1999/xlink" x="0px" y="0px"
	 viewBox="0 0 18 18" enable-background="new 0 0 18 18" xml:space="preserve">
<path fill="#FE4365" d="M0.514,13.391V4.609c0-1.691,0.882-3.193,2.358-4.017C4.349-0.232,6.09-0.194,7.529,0.694
	C8.058,1.02,8.55,1.39,9,1.8c0.45-0.409,0.942-0.78,1.471-1.106c1.439-0.888,3.18-0.926,4.657-0.102
	c1.477,0.824,2.358,2.326,2.358,4.017v8.781c0,1.691-0.882,3.193-2.358,4.017c-1.477,0.824-3.218,0.786-4.657-0.102
	C9.942,16.98,9.45,16.61,9,16.2c-0.45,0.409-0.942,0.78-1.471,1.106c-1.439,0.888-3.18,0.926-4.657,0.102
	C1.396,16.584,0.514,15.082,0.514,13.391z M7.937,2.935C7.562,2.595,7.153,2.288,6.713,2.017C5.76,1.429,4.608,1.404,3.63,1.95
	C2.653,2.496,2.069,3.49,2.069,4.609v8.781c0,1.12,0.584,2.114,1.561,2.659c0.978,0.546,2.13,0.521,3.083-0.067
	c0.44-0.271,0.849-0.578,1.224-0.917c-0.506-0.636-0.93-1.335-1.263-2.085l-0.002-0.006c-0.343-0.79-0.265-1.692,0.207-2.411
	C7.349,9.847,8.142,9.419,9,9.419c0.858,0,1.651,0.428,2.121,1.145c0.472,0.72,0.55,1.621,0.207,2.411l-0.002,0.006
	c-0.332,0.75-0.757,1.449-1.263,2.085c0.375,0.339,0.784,0.646,1.224,0.917c0.953,0.588,2.105,0.613,3.083,0.067
	c0.978-0.546,1.561-1.54,1.561-2.659V4.609c0-1.12-0.584-2.114-1.561-2.659c-0.978-0.546-2.13-0.521-3.083,0.067
	c-0.44,0.271-0.849,0.578-1.224,0.917c0.506,0.636,0.93,1.335,1.263,2.085l0.002,0.006c0.343,0.79,0.265,1.692-0.207,2.411
	C10.651,8.153,9.858,8.581,9,8.581c-0.858,0-1.651-0.428-2.121-1.145c-0.472-0.72-0.55-1.621-0.207-2.411l0.002-0.006
	C7.007,4.269,7.431,3.57,7.937,2.935z M9.986,11.958c0-0.189-0.055-0.375-0.165-0.541C9.637,11.135,9.337,10.974,9,10.974
	c-0.337,0-0.637,0.161-0.822,0.443c-0.186,0.284-0.216,0.625-0.081,0.937C8.341,12.903,8.644,13.42,9,13.898
	c0.356-0.478,0.659-0.995,0.903-1.544C9.959,12.225,9.986,12.091,9.986,11.958z M8.097,5.646C7.963,5.958,7.992,6.3,8.178,6.583
	C8.363,6.865,8.663,7.026,9,7.026s0.637-0.161,0.822-0.443c0.186-0.284,0.216-0.625,0.081-0.937C9.659,5.097,9.356,4.58,9,4.102
	C8.644,4.58,8.341,5.097,8.097,5.646z"/>
</svg>
