<?xml version="1.0" encoding="utf-8"?>
<!-- Generator: Adobe Illustrator 26.2.1, SVG Export Plug-In . SVG Version: 6.00 Build 0)  -->
<svg version="1.1" id="图层_1" xmlns="http://www.w3.org/2000/svg" xmlns:xlink="http://www.w3.org/1999/xlink" x="0px" y="0px"
	 viewBox="0 0 61 18" enable-background="new 0 0 61 18" xml:space="preserve">
<path fill="#121212" d="M27.991,5.198v7.583h-1.847V9.659h-2.873v3.122h-1.847V5.198h1.847v2.97h2.873v-2.97H27.991z M28.958,9.756
	c0-0.619,0.115-1.163,0.346-1.631c0.238-0.468,0.558-0.828,0.961-1.08s0.853-0.378,1.35-0.378c0.425,0,0.796,0.086,1.113,0.259
	c0.324,0.173,0.572,0.4,0.745,0.68V6.753h1.847v6.027h-1.847v-0.853c-0.18,0.281-0.432,0.508-0.756,0.68
	c-0.317,0.173-0.688,0.259-1.113,0.259c-0.49,0-0.936-0.126-1.339-0.378c-0.403-0.259-0.724-0.623-0.961-1.091
	C29.073,10.923,28.958,10.375,28.958,9.756z M33.473,9.767c0-0.461-0.13-0.825-0.389-1.091c-0.252-0.266-0.562-0.4-0.929-0.4
	s-0.681,0.133-0.94,0.4c-0.252,0.259-0.378,0.619-0.378,1.08c0,0.461,0.126,0.828,0.378,1.102c0.259,0.266,0.572,0.4,0.94,0.4
	c0.367,0,0.677-0.133,0.929-0.4C33.343,10.591,33.473,10.228,33.473,9.767z M38.503,7.607c0.18-0.281,0.428-0.508,0.745-0.68
	s0.688-0.259,1.113-0.259c0.497,0,0.947,0.126,1.35,0.378s0.72,0.612,0.951,1.08c0.238,0.468,0.356,1.012,0.356,1.631
	s-0.119,1.167-0.356,1.642c-0.231,0.468-0.547,0.832-0.951,1.091c-0.403,0.252-0.853,0.378-1.35,0.378
	c-0.418,0-0.789-0.086-1.113-0.259c-0.317-0.173-0.565-0.396-0.745-0.67v3.716h-1.847v-8.9h1.847V7.607z M41.139,9.756
	c0-0.461-0.13-0.821-0.389-1.08c-0.252-0.266-0.565-0.4-0.94-0.4c-0.367,0-0.681,0.133-0.94,0.4
	c-0.252,0.266-0.378,0.63-0.378,1.091s0.126,0.825,0.378,1.091c0.259,0.266,0.572,0.4,0.94,0.4c0.367,0,0.68-0.133,0.94-0.4
	C41.009,10.584,41.139,10.217,41.139,9.756z M45.834,7.607c0.18-0.281,0.428-0.508,0.745-0.68c0.317-0.173,0.688-0.259,1.113-0.259
	c0.497,0,0.947,0.126,1.35,0.378s0.72,0.612,0.951,1.08c0.238,0.468,0.356,1.012,0.356,1.631s-0.119,1.167-0.356,1.642
	c-0.231,0.468-0.548,0.832-0.951,1.091c-0.403,0.252-0.853,0.378-1.35,0.378c-0.418,0-0.789-0.086-1.113-0.259
	c-0.317-0.173-0.565-0.396-0.745-0.67v3.716h-1.847v-8.9h1.847V7.607z M48.47,9.756c0-0.461-0.13-0.821-0.389-1.08
	c-0.252-0.266-0.565-0.4-0.94-0.4c-0.367,0-0.68,0.133-0.94,0.4c-0.252,0.266-0.378,0.63-0.378,1.091s0.126,0.825,0.378,1.091
	c0.259,0.266,0.572,0.4,0.94,0.4s0.681-0.133,0.94-0.4C48.34,10.584,48.47,10.217,48.47,9.756z M52.247,6.127
	c-0.324,0-0.591-0.094-0.799-0.281c-0.202-0.194-0.302-0.432-0.302-0.713c0-0.288,0.101-0.526,0.302-0.713
	c0.209-0.194,0.475-0.292,0.799-0.292c0.317,0,0.576,0.097,0.778,0.292c0.209,0.187,0.313,0.425,0.313,0.713
	c0,0.281-0.105,0.518-0.313,0.713C52.823,6.033,52.564,6.127,52.247,6.127z M53.165,6.753v6.027h-1.847V6.753H53.165z M58.176,6.688
	c0.706,0,1.267,0.23,1.685,0.691c0.425,0.454,0.637,1.08,0.637,1.879v3.521h-1.836V9.508c0-0.403-0.104-0.717-0.313-0.94
	s-0.49-0.335-0.843-0.335c-0.353,0-0.634,0.112-0.843,0.335s-0.313,0.536-0.313,0.94v3.273h-1.847V6.753h1.847v0.799
	c0.187-0.266,0.439-0.475,0.756-0.626C57.424,6.768,57.78,6.688,58.176,6.688z"/>
<g>
	<path fill="#FE4365" d="M3.202,0.561h11.476c1.492,0,2.7,1.209,2.7,2.7v11.476c0,1.492-1.209,2.7-2.7,2.7H3.202
		c-1.492,0-2.7-1.209-2.7-2.7V3.262C0.501,1.77,1.71,0.561,3.202,0.561z"/>
	<path fill="#FFFFFF" d="M3.785,11.667V6.332c0-1.027,0.536-1.94,1.433-2.441C6.115,3.39,7.172,3.414,8.047,3.953
		c0.321,0.198,0.62,0.423,0.893,0.672c0.274-0.249,0.572-0.474,0.893-0.672c0.875-0.539,1.932-0.562,2.83-0.062
		c0.897,0.501,1.433,1.413,1.433,2.441v5.335c0,1.027-0.536,1.94-1.433,2.441c-0.897,0.501-1.955,0.478-2.829-0.062
		c-0.321-0.198-0.62-0.423-0.894-0.672c-0.274,0.249-0.572,0.474-0.893,0.672c-0.875,0.539-1.932,0.562-2.83,0.062
		C4.32,13.607,3.785,12.695,3.785,11.667z M8.295,5.314C8.067,5.108,7.818,4.922,7.551,4.757C6.972,4.4,6.272,4.385,5.678,4.716
		C5.084,5.048,4.729,5.652,4.729,6.332v5.335c0,0.68,0.355,1.284,0.949,1.616c0.594,0.332,1.294,0.316,1.873-0.041
		c0.267-0.165,0.516-0.351,0.743-0.557c-0.307-0.386-0.565-0.811-0.767-1.267l-0.002-0.003c-0.208-0.48-0.161-1.028,0.126-1.465
		C7.937,9.514,8.419,9.254,8.94,9.254c0.521,0,1.003,0.26,1.289,0.695c0.287,0.437,0.334,0.985,0.126,1.465l-0.002,0.003
		c-0.202,0.456-0.46,0.88-0.767,1.267c0.228,0.206,0.476,0.393,0.743,0.557c0.579,0.357,1.279,0.372,1.873,0.041
		c0.594-0.332,0.949-0.936,0.949-1.616V6.332c0-0.68-0.355-1.284-0.949-1.616C11.609,4.385,10.909,4.4,10.33,4.757
		c-0.267,0.165-0.516,0.351-0.743,0.557c0.307,0.386,0.565,0.811,0.767,1.267l0.002,0.003c0.208,0.48,0.161,1.028-0.126,1.465
		C9.944,8.485,9.462,8.745,8.94,8.745c-0.521,0-1.003-0.26-1.289-0.695C7.365,7.612,7.318,7.065,7.526,6.584l0.002-0.003
		C7.729,6.125,7.987,5.701,8.295,5.314z M9.54,10.796c0-0.115-0.034-0.228-0.1-0.329c-0.112-0.171-0.294-0.269-0.499-0.269
		c-0.205,0-0.387,0.098-0.499,0.269c-0.113,0.172-0.131,0.38-0.05,0.569c0.148,0.334,0.332,0.648,0.549,0.938
		c0.216-0.29,0.401-0.604,0.549-0.938C9.523,10.959,9.54,10.877,9.54,10.796z M8.392,6.962C8.31,7.151,8.328,7.359,8.441,7.531
		C8.554,7.702,8.736,7.8,8.94,7.8c0.205,0,0.387-0.098,0.499-0.269c0.113-0.172,0.131-0.38,0.049-0.569
		C9.341,6.628,9.157,6.314,8.94,6.024C8.724,6.314,8.54,6.628,8.392,6.962z"/>
</g>
</svg>
