<svg width="64" height="64" viewBox="0 0 64 64" fill="none" xmlns="http://www.w3.org/2000/svg">
	<g clip-path="url(#clip0_20544_101366)">
		<path d="M61.8286 13.9795C61.0975 10.4836 60.1222 7.06326 57.9375 4.13814C55.9299 1.45014 53.3197 -0.173991 49.8501 0.0148617C47.2947 0.155452 45.1754 1.20044 43.9409 3.5443C42.7106 5.87768 43.2583 8.11873 44.8193 10.0261C46.8607 12.5211 47.7118 15.3623 47.7602 18.4783C47.7918 20.5095 47.617 22.5429 47.539 24.4776C45.4324 24.3034 43.6038 23.9823 41.7836 24.0327C36.9341 24.167 32.6112 25.9338 28.657 28.6512C24.8271 31.2846 21.7387 34.6567 18.9705 38.3498C17.9509 39.7095 16.887 41.0357 15.7895 42.3325C15.6104 42.5423 15.1469 42.5109 14.8141 42.5927C14.753 42.2339 14.5507 41.8226 14.6603 41.5267C14.8436 41.0357 15.1996 40.5993 15.5325 40.1775C19.573 35.0428 24.3699 30.7286 29.7988 27.09C32.6028 25.212 35.4215 23.3402 37.6672 20.7635C41.1727 16.7409 41.2506 11.2705 37.7683 7.35912C35.9482 5.31532 33.6329 3.92621 30.9891 3.26942C24.0813 1.55296 17.9593 3.19178 12.7432 7.97185C9.27565 11.1488 7.07629 15.2259 5.10867 19.4121C2.03293 25.9569 0.40448 32.8752 0.0589864 40.0768C-0.162214 44.6743 0.204346 49.2235 1.74643 53.6175C4.50405 61.4758 12.975 65.7481 20.9382 63.2657C23.087 62.5964 24.9429 61.4947 26.0869 59.4635C26.9674 57.9002 26.841 56.3726 25.6234 55.0654C24.7238 54.1001 23.7358 53.2146 22.7731 52.3081C21.5933 51.2002 20.3483 50.1573 19.2233 48.9969C18.2163 47.9582 17.7234 46.609 18.0352 45.201C18.309 43.965 18.7641 42.7102 19.4066 41.6212C22.5877 36.2326 27.2118 32.4681 32.9588 30.034C35.3836 29.0079 37.9095 28.54 40.5533 28.6932C43.7449 28.8799 45.5166 31.165 44.832 34.2685C44.7856 34.4783 44.7203 34.684 44.6655 34.8938C43.9282 37.7182 42.1986 40.0222 40.7029 42.4521C38.2023 46.5145 35.6764 50.5644 33.2685 54.6814C32.0171 56.8217 32.4869 58.7396 34.345 60.4015C35.6743 61.5913 37.1827 62.4474 38.8849 62.9888C43.6185 64.4933 48.3459 64.1995 53.0353 62.844C57.0127 61.6962 59.5829 59.069 60.6446 55.0675C61.0723 53.458 61.4157 51.8213 61.679 50.1783C62.5533 44.7183 62.9662 39.2122 63.1284 33.6894C63.3222 27.0795 63.1895 20.4823 61.8286 13.9753V13.9795Z" fill="#FE4365"/>
	</g>
	<defs>
		<clipPath id="clip0_20544_101366">
			<rect width="63.2" height="64" fill="white"/>
		</clipPath>
	</defs>
</svg>
