<?xml version="1.0" encoding="utf-8"?>
<!-- Generator: Adobe Illustrator 25.4.0, SVG Export Plug-In . SVG Version: 6.00 Build 0)  -->
<svg version="1.1" id="图层_1" xmlns="http://www.w3.org/2000/svg" xmlns:xlink="http://www.w3.org/1999/xlink" x="0px" y="0px"
	 width="24px" height="24px" viewBox="0 0 24 24" style="enable-background:new 0 0 24 24;" xml:space="preserve">
<style type="text/css">
	.st0{clip-path:url(#SVGID_00000108289505658871926190000006222089031051098502_);}
	.st1{fill:#BBDD80;}
	.st2{fill:#7C994A;}
	.st3{fill:#ABCF75;}
</style>
<g>
	<defs>
		<rect id="SVGID_1_" y="3" width="24" height="18"/>
	</defs>
	<clipPath id="SVGID_00000003078573595922333210000012669324809786844036_">
		<use xlink:href="#SVGID_1_"  style="overflow:visible;"/>
	</clipPath>
	<g style="clip-path:url(#SVGID_00000003078573595922333210000012669324809786844036_);">
		<path class="st1" d="M0,15.199L0.433,21h22.826L24,15.199H0z"/>
		<path class="st2" d="M24,3H0v12.199h24V3z"/>
		<path class="st3" d="M23.261,3.906H0.742v10.387h22.519V3.906z"/>
		<path class="st2" d="M22.517,4.812H1.48v8.575h21.037V4.812z"/>
		<path class="st3" d="M21.778,7.771c-0.445,0-0.872-0.216-1.187-0.601c-0.315-0.385-0.492-0.907-0.492-1.452H3.902
			c0,0.545-0.177,1.067-0.492,1.452C3.095,7.555,2.668,7.771,2.223,7.771v2.657c0.445,0,0.872,0.216,1.187,0.601
			c0.315,0.385,0.492,0.907,0.492,1.452h16.197c0-0.545,0.177-1.067,0.492-1.452c0.315-0.385,0.742-0.601,1.187-0.601V7.771z"/>
		<path class="st2" d="M9.852,9.235c0-0.529,0.128-1.045,0.368-1.485c0.24-0.439,0.581-0.782,0.981-0.984
			c0.399-0.202,0.839-0.255,1.263-0.152c0.424,0.103,0.813,0.358,1.119,0.731c0.306,0.374,0.514,0.85,0.598,1.368
			c0.084,0.518,0.041,1.056-0.124,1.544c-0.165,0.488-0.446,0.906-0.805,1.199c-0.359,0.294-0.782,0.45-1.214,0.45
			c-0.58,0-1.135-0.282-1.545-0.783C10.082,10.624,9.852,9.944,9.852,9.235z"/>
		<path class="st2" d="M23.816,16.656l0.062-0.491H0.074l0.037,0.491H23.816z"/>
		<path class="st2" d="M23.657,17.887l0.063-0.491H0.164l0.037,0.491H23.657z"/>
		<path class="st2" d="M23.561,18.625H0.254l0.037,0.491h23.207L23.561,18.625z"/>
		<path class="st2" d="M23.356,20.283H0.379l0.037,0.491h22.877L23.356,20.283z"/>
	</g>
</g>
</svg>
