<svg width="118" height="32" viewBox="0 0 118 32" fill="none" xmlns="http://www.w3.org/2000/svg">
<path d="M32.3555 7.60969H36.4207V14.4893H44.3166V7.60969H48.3818V26.0595H44.3166V18.0854H36.4207V26.0595H32.3555V7.60969Z" fill="black"/>
<path d="M59.5817 24.4699H59.5296C59.0953 25.1475 58.5133 25.6339 57.7836 25.9292C57.0714 26.2246 56.3156 26.3722 55.5165 26.3722C54.9258 26.3722 54.3525 26.2854 53.7966 26.1116C53.258 25.9553 52.7803 25.7121 52.3633 25.382C51.9464 25.0519 51.6163 24.6436 51.3731 24.1572C51.1299 23.6708 51.0083 23.1062 51.0083 22.4634C51.0083 21.7337 51.1386 21.117 51.3992 20.6132C51.6771 20.1094 52.042 19.6924 52.4936 19.3623C52.9627 19.0323 53.4926 18.7804 54.0832 18.6066C54.6739 18.4155 55.282 18.2765 55.9074 18.1897C56.5502 18.1028 57.1843 18.0507 57.8097 18.0333C58.4525 18.0159 59.0432 18.0073 59.5817 18.0073C59.5817 17.3124 59.3298 16.7651 58.826 16.3655C58.3396 15.9486 57.7576 15.7401 57.08 15.7401C56.4372 15.7401 55.8466 15.8791 55.308 16.1571C54.7868 16.4177 54.3178 16.7825 53.9008 17.2515L51.8161 15.1147C52.5458 14.4372 53.397 13.9334 54.3699 13.6033C55.3428 13.2558 56.3504 13.0821 57.3927 13.0821C58.5393 13.0821 59.4775 13.2298 60.2071 13.5251C60.9542 13.8031 61.5448 14.22 61.9791 14.7759C62.4308 15.3319 62.7435 16.0181 62.9173 16.8346C63.091 17.6337 63.1779 18.5632 63.1779 19.6229V26.0595H59.5817V24.4699ZM58.6175 20.5089C58.3222 20.5089 57.9487 20.5263 57.497 20.5611C57.0627 20.5784 56.637 20.6479 56.2201 20.7695C55.8205 20.8911 55.4731 21.0736 55.1777 21.3168C54.8998 21.56 54.7608 21.8988 54.7608 22.3331C54.7608 22.8021 54.9606 23.1496 55.3601 23.3754C55.7597 23.6013 56.1767 23.7142 56.611 23.7142C56.9932 23.7142 57.358 23.6621 57.7055 23.5578C58.0703 23.4536 58.3917 23.3059 58.6696 23.1148C58.9476 22.9237 59.1648 22.6805 59.3211 22.3852C59.4948 22.0899 59.5817 21.7424 59.5817 21.3428V20.5089H58.6175Z" fill="black"/>
<path d="M65.9951 13.3948H69.5913V15.0626H69.6434C69.7997 14.8367 69.9995 14.6109 70.2427 14.3851C70.5033 14.1418 70.7987 13.9247 71.1287 13.7336C71.4762 13.5425 71.8497 13.3861 72.2493 13.2645C72.6488 13.1429 73.0745 13.0821 73.5262 13.0821C74.4643 13.0821 75.3156 13.2471 76.08 13.5772C76.8444 13.8899 77.4958 14.3416 78.0344 14.9323C78.5903 15.5056 79.0159 16.1918 79.3113 16.991C79.6066 17.7901 79.7543 18.6674 79.7543 19.6229C79.7543 20.5089 79.6153 21.3602 79.3373 22.1767C79.0768 22.9759 78.6946 23.6881 78.1907 24.3136C77.7043 24.939 77.1049 25.4428 76.3927 25.825C75.6804 26.1898 74.8726 26.3722 73.9692 26.3722C73.1527 26.3722 72.3883 26.2506 71.676 26.0074C70.9811 25.7468 70.4078 25.3125 69.9561 24.7045H69.904V32.001H65.9951V13.3948ZM69.5913 19.7272C69.5913 20.6827 69.8605 21.4557 70.3991 22.0464C70.955 22.6371 71.7281 22.9324 72.7183 22.9324C73.7086 22.9324 74.473 22.6371 75.0115 22.0464C75.5675 21.4557 75.8454 20.6827 75.8454 19.7272C75.8454 18.7717 75.5675 17.9986 75.0115 17.4079C74.473 16.8172 73.7086 16.5219 72.7183 16.5219C71.7281 16.5219 70.955 16.8172 70.3991 17.4079C69.8605 17.9986 69.5913 18.7717 69.5913 19.7272Z" fill="black"/>
<path d="M82.4093 13.3948H86.0054V15.0626H86.0575C86.2139 14.8367 86.4137 14.6109 86.6569 14.3851C86.9175 14.1418 87.2128 13.9247 87.5429 13.7336C87.8904 13.5425 88.2639 13.3861 88.6634 13.2645C89.063 13.1429 89.4886 13.0821 89.9403 13.0821C90.8785 13.0821 91.7297 13.2471 92.4941 13.5772C93.2585 13.8899 93.91 14.3416 94.4486 14.9323C95.0045 15.5056 95.4301 16.1918 95.7255 16.991C96.0208 17.7901 96.1685 18.6674 96.1685 19.6229C96.1685 20.5089 96.0295 21.3602 95.7515 22.1767C95.4909 22.9759 95.1087 23.6881 94.6049 24.3136C94.1185 24.939 93.5191 25.4428 92.8068 25.825C92.0946 26.1898 91.2867 26.3722 90.3833 26.3722C89.5668 26.3722 88.8024 26.2506 88.0901 26.0074C87.3952 25.7468 86.8219 25.3125 86.3702 24.7045H86.3181V32.001H82.4093V13.3948ZM86.0054 19.7272C86.0054 20.6827 86.2747 21.4557 86.8132 22.0464C87.3692 22.6371 88.1423 22.9324 89.1325 22.9324C90.1228 22.9324 90.8871 22.6371 91.4257 22.0464C91.9816 21.4557 92.2596 20.6827 92.2596 19.7272C92.2596 18.7717 91.9816 17.9986 91.4257 17.4079C90.8871 16.8172 90.1228 16.5219 89.1325 16.5219C88.1423 16.5219 87.3692 16.8172 86.8132 17.4079C86.2747 17.9986 86.0054 18.7717 86.0054 19.7272Z" fill="black"/>
<path d="M98.5107 13.3948H102.42V26.0595H98.5107V13.3948ZM98.198 9.40776C98.198 8.78235 98.4152 8.25248 98.8495 7.81816C99.3012 7.36647 99.8397 7.14062 100.465 7.14062C101.091 7.14062 101.62 7.36647 102.055 7.81816C102.506 8.25248 102.732 8.78235 102.732 9.40776C102.732 10.0332 102.506 10.5717 102.055 11.0234C101.62 11.4577 101.091 11.6749 100.465 11.6749C99.8397 11.6749 99.3012 11.4577 98.8495 11.0234C98.4152 10.5717 98.198 10.0332 98.198 9.40776Z" fill="black"/>
<path d="M105.228 13.3948H108.98V15.1147H109.032C109.154 14.8715 109.328 14.6283 109.554 14.3851C109.78 14.1418 110.049 13.9247 110.361 13.7336C110.674 13.5425 111.03 13.3861 111.43 13.2645C111.829 13.1429 112.264 13.0821 112.733 13.0821C113.723 13.0821 114.522 13.2385 115.13 13.5512C115.738 13.8465 116.207 14.2634 116.537 14.802C116.885 15.3405 117.119 15.9747 117.241 16.7043C117.363 17.434 117.424 18.2244 117.424 19.0757V26.0595H113.515V19.8575C113.515 19.4926 113.497 19.1191 113.463 18.7369C113.445 18.3373 113.367 17.9725 113.228 17.6424C113.106 17.3124 112.907 17.0431 112.629 16.8346C112.368 16.6261 111.986 16.5219 111.482 16.5219C110.978 16.5219 110.57 16.6174 110.257 16.8085C109.945 16.9823 109.701 17.2255 109.528 17.5382C109.371 17.8335 109.267 18.1723 109.215 18.5545C109.163 18.9367 109.137 19.3363 109.137 19.7532V26.0595H105.228V13.3948Z" fill="black"/>
<path fill-rule="evenodd" clip-rule="evenodd" d="M22.3315 23.4103C20.9252 25.495 16.6305 26.362 12.6429 26.2868C10.3678 26.2437 8.19314 25.8945 6.71077 25.2889C4.43142 24.3387 3.59052 21.8362 3.31238 19.1062C3.08697 16.3786 3.59892 13.4273 4.89218 11.638C6.30808 9.7563 9.28773 9.09957 12.5432 9.16063C15.9859 9.22588 19.541 10.0902 21.2736 11.1457C24.4179 13.2269 24.1661 20.3651 22.3315 23.4103ZM26.913 16.7818C26.7533 12.9395 25.3871 9.97714 23.0661 8.44044C23.0321 8.4183 22.9981 8.39655 22.9633 8.37557C21.5031 7.48568 19.283 6.76217 16.8546 6.33478L19.171 4.90798C19.2337 4.86867 19.3036 4.81983 19.3621 4.77251C20.1521 4.1341 20.2748 2.97709 19.6364 2.18794C18.9976 1.39842 17.8396 1.27592 17.0499 1.91396L12.4828 5.60363L6.82986 0.437551C6.80503 0.415037 6.77637 0.390233 6.75039 0.368863C6.03213 -0.208877 4.98147 -0.0955421 4.40304 0.621863C3.82499 1.33965 3.93846 2.38943 4.65635 2.96755L8.65761 6.18633C6.1712 6.60838 3.69165 7.59749 2.12141 9.68521C2.1088 9.70162 2.09695 9.71803 2.08511 9.73444C-0.106362 12.7651 -0.114385 17.0741 0.0754969 19.3732C0.0774071 19.3938 0.0793174 19.4141 0.0816097 19.4347C0.547718 24.0123 2.35713 26.9892 5.45904 28.2832L5.45913 28.2832C5.46675 28.2863 5.47436 28.2893 5.48159 28.2927C7.31049 29.0391 9.83129 29.4787 12.5806 29.5306C14.2666 29.5623 16.7996 29.46 19.2944 28.7922C20.1225 28.5706 20.8783 28.3034 21.5604 27.9916C21.5056 28.0239 21.4501 28.0559 21.3941 28.0875C21.3627 28.105 21.3443 28.1393 21.3482 28.1754L21.4259 28.9113C21.4312 28.9619 21.4772 28.9985 21.5274 28.9935L26.6965 28.4529C26.7474 28.4476 26.7846 28.4023 26.7792 28.3517L26.6869 20.5155C26.686 20.5068 26.6842 20.4988 26.6816 20.4915C26.8815 19.2914 26.9647 18.0271 26.913 16.7818ZM16.7646 17.6911C16.7326 19.3874 15.3353 20.7359 13.6442 20.7038C11.9531 20.672 10.6076 19.2712 10.6396 17.5749C10.6717 15.879 12.0685 14.5301 13.7601 14.5622C15.4512 14.5943 16.7966 15.9952 16.7646 17.6911ZM12.501 11.6969C9.82656 12.1693 7.75543 14.4065 7.47606 17.1233C7.20201 19.7989 8.78376 22.3923 11.2722 23.4231C12.9134 24.1035 14.5916 23.9169 16.2694 23.7098C16.8439 23.6389 17.4123 23.5161 17.9807 23.3933C18.2369 23.3379 18.4931 23.2826 18.7499 23.232C18.754 23.2163 18.7582 23.2007 18.7624 23.185C18.778 23.126 18.7937 23.0668 18.8097 23.0076L17.8283 22.1591C18.6553 21.2483 19.2122 20.2946 19.4881 19.1705C20.5359 14.8992 16.8346 10.9313 12.501 11.6969Z" fill="#FE4365"/>
</svg>
