<svg width="22" height="22" viewBox="0 0 22 22" fill="none" xmlns="http://www.w3.org/2000/svg">
<path fill-rule="evenodd" clip-rule="evenodd" d="M12.7607 19.4314L20.4871 10.5525L12.7607 2.36044L12.7607 5.50081C12.7607 7.20407 11.4088 8.3662 10.0378 8.6144C8.45656 8.90068 6.61623 9.75743 5.09944 11.5552C3.73015 13.1782 2.55938 15.6465 2.14698 19.3273C2.90898 18.3297 3.76618 17.2264 4.70542 16.2888C5.99604 15.0005 7.61493 13.8365 9.68933 13.5435C11.5987 13.2738 12.7607 14.9408 12.7607 16.365L12.7607 19.4314ZM21.6186 11.5372L13.8923 20.4161C12.9818 21.4625 11.2607 20.8185 11.2607 19.4314L11.2607 16.365C11.2607 15.5916 10.665 14.9206 9.89912 15.0288C7.00356 15.4377 5.01368 18.0447 3.20279 20.4172C2.98898 20.6973 2.77766 20.9741 2.56764 21.2437C1.80036 22.2286 0.467526 21.6855 0.545373 20.4394C1.12151 11.2174 5.98108 7.82446 9.77062 7.13839C10.5858 6.99081 11.2607 6.32924 11.2607 5.50081L11.2607 2.36044C11.2607 1.00282 12.9205 0.343609 13.852 1.33126L21.5783 9.52336C22.1075 10.0845 22.1249 10.9554 21.6186 11.5372Z" fill="#454545"/>
</svg>
