<?xml version="1.0" encoding="utf-8"?>
<!-- Generator: Adobe Illustrator 24.0.3, SVG Export Plug-In . SVG Version: 6.00 Build 0)  -->
<svg version="1.1" id="Layer_1" xmlns="http://www.w3.org/2000/svg" xmlns:xlink="http://www.w3.org/1999/xlink" x="0px" y="0px"
	 viewBox="0 0 680.7 100.5" style="enable-background:new 0 0 680.7 100.5;" xml:space="preserve">
<title>fb</title>
<path d="M372.7,97.2c1.7-7.9,3.4-15.1,4.8-22.3c1.4-7,2.7-14,3.8-21c0.6-3.6,0.2-7.3-3.7-8.9c-4.1-1.8-8.7-1.4-11.4,2.2
	c-3,4-5.7,8.6-7.1,13.4c-2.9,10.5-5,21.2-7.2,31.9c-0.7,3.4-2,5.2-5.8,4.8c-3.9-0.4-7.9-0.1-12.7-0.1c1.8-8.7,3.5-16.7,5.2-24.8
	c1.2-6,2.3-12,3.5-18c0.7-3.7,0.2-7.1-3.2-9.2c-3.6-2.2-7.9-2-10.7,0.9c-3,3.1-6,6.9-7.2,11c-3.1,10.4-5.3,21.1-7.7,31.8
	c-2.3,10-0.8,8.1-9.9,8.3c-2.8,0.1-5.6,0-9.3,0c1.5-7.7,2.9-14.8,4.4-21.8c2.7-13.1,5.5-26.2,8-39.4c0.6-3.3,2-4.5,5.3-4.3
	c3.8,0.2,7.6,0,11.7,0c-0.1,2.4-0.2,4.1-0.4,6.9c5.8-5.7,12-8.6,19.2-8.3c7.4,0.3,13.6,3,16.6,11.1c5.1-6.4,11-9.8,18.4-10.9
	c13.9-2,24.8,8,22.5,21.7c-2.4,14.2-5.9,28.2-9.1,42.2c-0.2,1.1-1.8,2.5-2.8,2.6C383.1,97.3,378.3,97.2,372.7,97.2z"/>
<path d="M159.8,2.3c-3.7,17.4-7.1,33.8-10.6,50.3c0.3,0.2,0.7,0.5,1,0.7c3.4-3.4,7.4-6.4,10.2-10.3c7.1-9.8,16.4-13.1,28-11.3
	c1.4,0.2,2.9,0.2,5.6,0.3c-1.7,1.8-2.7,3-3.8,4c-7.9,7.6-15.8,15.2-23.9,22.6c-2.7,2.4-2.7,4.1-1,7.1c5.8,10,11.3,20.2,17.4,31.4
	c-6.7,0-12.6,0.2-18.4-0.2c-1.2-0.1-2.5-2.3-3.3-3.8c-4.7-9.4-9.3-18.9-14.6-29.7c-2.3,10.6-4.4,19.8-6.1,29c-0.7,3.6-2,5.2-5.8,4.9
	c-3.9-0.3-7.9-0.1-12.4-0.1c3-14.4,5.9-27.9,8.7-41.5c3.4-16,7-32,10.2-48.1c0.9-4.3,2.6-5.8,6.9-5.4C151.5,2.5,155.2,2.3,159.8,2.3
	z"/>
<path d="M440.8,97.3c0.3-3,0.6-5.3,0.9-8.2c-1.8,1.5-3.2,2.7-4.6,4c-7.3,6.2-15.7,6.9-24.4,4.1c-7.7-2.5-11.2-8.6-11.6-16.3
	c-0.4-8.4,2.7-16,10.9-19c7.8-2.9,16.3-3.8,24.6-5.2c3.2-0.6,6.6-0.1,9.7-0.1c2.2-8.2-0.4-12.7-8.3-12.8c-6.3-0.1-12.7,1.4-19.1,2.4
	c-1.7,0.3-3.4,1.1-5.6,1.9c0.7-4.2,1.1-8,2-11.6c0.3-1.2,2-2.6,3.3-3c9.1-2.9,18.5-4,28-2.3c11.7,2.2,18.3,10.7,16.5,22.6
	c-2.1,13.7-4.8,27.3-7.4,41c-0.2,1-1.5,2.5-2.3,2.5C449.3,97.5,445.2,97.3,440.8,97.3z M444.5,67.6c-7.7-0.2-15-0.8-21.7,3.2
	c-3.8,2.3-5.7,5.8-4.6,10.1c1.2,4.3,5,4.9,8.8,4.9C436,85.7,442,79.7,444.5,67.6z"/>
<path d="M207.1,70.1c0.6-3.7,0.7-6.8,1.7-9.7c0.4-1.2,2.6-2.3,4-2.4c5.1-0.3,10.3-0.4,15.5-0.1c4,0.2,4.9-1.8,4.6-5.1
	c-0.5-5.7-3.9-9.2-9.7-9.4c-6.4-0.3-12.2,1.6-15.1,7.6c-2.6,5.6-5,11.6-5.9,17.7c-1.4,10.3,4.7,16.7,15.3,17
	c3.6,0.1,7.3-0.2,10.9-0.9c3.5-0.7,7-2,11.4-3.3c-0.7,4.4-1.2,8.4-2.1,12.3c-0.2,0.9-2,1.9-3.1,2c-8.7,0.8-17.6,2.8-26.1,1.9
	c-16.8-1.8-25.3-14.9-22.9-33.3c2.9-22.5,22.9-37.3,44.8-33.3c11.1,2,18.2,9.9,18.7,21.3c0.2,4.9-0.4,9.9-1,14.8
	c-0.1,1.1-1.6,2.8-2.5,2.8C233.1,70.2,220.5,70.1,207.1,70.1z"/>
<path d="M585.4,69.8c0.1-12,0.1-12,11.2-12c4.3,0,8.6,0,13,0c1.2-5,1.2-9.5-2.9-12.5c-4.6-3.4-9.9-2.6-14.7-0.3
	c-9.6,4.5-15.6,24.7-10.2,33.9c3.1,5.4,8.5,6.7,14.1,6.8c3.6,0.1,7.3-0.3,10.9-1c3.4-0.7,6.6-2,10.7-3.2c-0.6,4.2-0.8,7.9-1.8,11.5
	c-0.3,1.2-2.1,2.8-3.4,2.9c-8.5,0.9-17.2,2.8-25.6,2C571.2,96.5,563,85.7,563,69.3c0.1-21.4,17.3-39.2,37.7-39.1
	c17.7,0.1,27.5,10.6,26.3,28.1c-0.3,3.8-0.9,7.5-1.4,11.4C611.9,69.8,598.7,69.8,585.4,69.8z"/>
<path d="M14,44.5c-4.2,0-7.8,0-11.6,0c0.2-1.7,0.2-2.9,0.4-4c2.3-10.1,0.3-8.7,10.1-8.7c2.7,0,4.7-0.4,4.8-3.5
	c0.2-7.8,4.4-11.8,12-12.9c2.7-0.4,5.3-1.6,8.9-2.7c-1.4,6.8-2.5,12.5-3.8,19.1c5,0,9.6,0,15,0c-0.9,4.1-1.4,7.3-2.3,10.4
	c-0.3,1-1.6,1.7-2.6,2.3c-0.3,0.2-1,0-1.5,0.1c-3.8,0.2-8.7-0.9-11,1.1c-2.3,2-2.2,7-3,10.7c-1.3,6-2.8,11.9-3.9,18
	c-1.6,9.2,1.5,12,10.7,10.2c0.8-0.2,1.6-0.2,3.3-0.4c-0.9,4.1-1.5,7.8-2.6,11.4c-0.3,1.1-2.1,2.3-3.3,2.3c-4.6,0.3-9.3,0.9-13.8,0.1
	C11.8,96.4,6.9,91,7.5,83.1c0.7-9.7,2.9-19.3,4.5-28.9C12.5,51.2,13.2,48.2,14,44.5z"/>
<path d="M263.8,44.5c-4.3,0-7.8,0-11.7,0c0.2-1.9,0.3-3.2,0.5-4.5c1.6-8.2,1.6-8.4,9.9-8.2c3.4,0.1,4.9-1.1,5.1-4.3
	c0.1-0.8,0.4-1.6,0.5-2.4c0.3-4.9,2.7-7.7,7.7-8.7c3.9-0.8,7.6-2.3,12.3-3.8c-1.3,6.7-2.4,12.5-3.7,19.1c4.8,0,9.4,0,14.8,0
	c-0.9,4.6-1.6,8.4-2.5,12.8c-4,0-8,0.1-11.9,0c-2.8-0.1-3.6,1.3-4.1,3.7c-1.7,8.4-3.7,16.8-5.5,25.2c-2,9.8,1.1,12.8,11.2,10.8
	c0.6-0.1,1.3,0,2.5,0c-0.8,3.9-1.3,7.6-2.4,11.1c-0.3,1-2.1,2.3-3.2,2.3c-4.4,0.3-9,0.9-13.4,0.2c-8.2-1.3-13.2-6.8-12.6-15.3
	c0.6-9.2,2.8-18.2,4.4-27.3C262.3,51.9,263,48.5,263.8,44.5z"/>
<path d="M533.1,44.4c-4.4,0-8,0-11.9,0c0.3-1.9,0.4-3.4,0.8-4.8c2.4-9.1,0.1-7.8,9.7-7.9c2.4,0,5,0.3,4.9-3.2
	c-0.1-8.8,5.3-12.2,13-13.6c2.4-0.4,4.7-1.3,7.8-2.2c-1.3,6.5-2.5,12.3-3.8,18.8c4.8,0,9.3,0,14.7,0c-0.9,4.3-1.3,7.9-2.4,11.3
	c-0.3,0.8-2.3,1.5-3.5,1.6c-3.9,0.5-8.9-0.7-11.4,1.4c-2.3,1.9-2.1,7-2.9,10.7c-1.2,5.5-2.4,11-3.6,16.5
	c-2.3,10.5,0.7,13.4,11.4,11.2c0.5-0.1,1,0,2.2,0c-0.8,4-1.5,7.8-2.5,11.5c-0.3,0.9-1.9,2-3,2c-4.6,0.3-9.4,0.9-13.8,0.1
	c-9.3-1.7-14.1-9.5-12.4-20c1.4-8.5,3.3-16.9,5-25.3C532,50.1,532.5,47.7,533.1,44.4z"/>
<path d="M466.9,81c3.7,1.4,6.9,3.2,10.2,3.8c3.8,0.6,8,0.9,11.8,0c6.4-1.5,7.7-7.1,2.9-11.5c-2.7-2.4-5.8-4.4-8.9-6.4
	c-7.3-4.6-11.4-10.8-9.8-19.5c1.6-8.5,7.5-12.9,15.4-15.3c9.3-2.8,18.7-2.1,28.7,0.4c-1.2,4.3-2.4,8.3-3.5,12.3
	c-4.7-0.5-9.1-1.3-13.4-1.3c-3.7,0-7.8,0.6-9,4.8c-1.2,4.2,2.6,6,5.3,8.1c3,2.3,6.4,4.2,9.3,6.7c10.8,9.1,9.3,25.2-3.3,31.6
	c-11.7,5.9-24.2,5.1-36.4,1.2c-1-0.3-2.3-2.5-2.1-3.6C464.6,88.5,465.8,84.9,466.9,81z"/>
<path d="M124.2,46.9c-2.7-0.9-4.8-1.9-7.1-2.3c-13.2-2.8-24.3,5.7-25.8,19.6c-1.9,17.6,6.7,24.4,23.8,19c0.9-0.3,1.9-0.5,3.7-1.1
	c-0.5,4.3-0.9,8.2-1.6,12c-0.1,0.8-1,1.7-1.8,2.2c-14.2,8.8-37.5-0.5-41.6-16.8c-5.5-21.4,7.3-51.5,41.5-49
	c4.2,0.3,8.4,1.4,13.4,2.2C127,37.9,125.6,42.3,124.2,46.9z"/>
<path d="M676.4,47.6c-14.9-1.4-22.4,4-25.8,18.5c-2.1,9-4,18.1-5.7,27.2c-0.6,3.1-1.8,4.2-4.9,4c-4.3-0.2-8.6-0.1-13.5-0.1
	c4.5-22,8.9-43.3,13.4-65c5.4,0,10.7,0,16.4,0c-0.4,2.9-0.8,5.5-1.2,8.2c3.1-2.6,5.9-5.2,9-7.2c2-1.3,4.5-2.1,7-2.5
	c8-1.5,9.3-0.1,7.5,7.6C677.9,41.2,677.2,44.2,676.4,47.6z"/>
<path d="M42,97.2c0.9-4.6,1.6-8.4,2.4-12.3c3.5-16.3,7.1-32.6,10.5-49c0.7-3.2,1.9-4.5,5.3-4.3c4.2,0.3,8.5,0.1,13.2,0.1
	c-4,18.6-7.7,36.4-11.5,54.1c-2.5,11.5-2.5,11.5-14.4,11.3C45.9,97.2,44.3,97.2,42,97.2z"/>
<path d="M79.5,4c-1.2,5.3-2,9.9-3.2,14.3c-0.3,0.9-1.7,2.1-2.7,2.2c-4.9,0.2-9.9,0.1-15.3,0.1c1.2-5.2,2.1-9.8,3.2-14.2
	c0.2-0.9,1.4-2.2,2.2-2.2C68.8,3.9,73.9,4,79.5,4z"/>
</svg>
