<svg width="24" height="24" viewBox="0 0 24 24" fill="none" xmlns="http://www.w3.org/2000/svg">
<path d="M8.70685 3.29285C8.31685 3.68285 8.33785 4.31385 8.56885 4.81585C8.81014 5.3411 8.88481 5.92764 8.78282 6.49659C8.68083 7.06554 8.40706 7.58961 7.99834 7.99834C7.58961 8.40706 7.06554 8.68083 6.49659 8.78282C5.92764 8.88481 5.3411 8.81014 4.81585 8.56885C4.31385 8.33885 3.68285 8.31685 3.29285 8.70685L2.70685 9.29285C2.51938 9.48038 2.41406 9.73468 2.41406 9.99985C2.41406 10.265 2.51938 10.5193 2.70685 10.7068L13.2928 21.2928C13.4804 21.4803 13.7347 21.5856 13.9998 21.5856C14.265 21.5856 14.5193 21.4803 14.7068 21.2928L15.2928 20.7069C15.6828 20.3169 15.6618 19.6858 15.4308 19.1838C15.1896 18.6586 15.1149 18.0721 15.2169 17.5031C15.3189 16.9342 15.5926 16.4101 16.0014 16.0014C16.4101 15.5926 16.9342 15.3189 17.5031 15.2169C18.0721 15.1149 18.6586 15.1896 19.1838 15.4308C19.6858 15.6608 20.3169 15.6828 20.7069 15.2928L21.2928 14.7068C21.4803 14.5193 21.5856 14.265 21.5856 13.9998C21.5856 13.7347 21.4803 13.4804 21.2928 13.2928L10.7068 2.70685C10.5193 2.51938 10.265 2.41406 9.99985 2.41406C9.73468 2.41406 9.48038 2.51938 9.29285 2.70685L8.70685 3.29285V3.29285Z" stroke="#373F41" stroke-width="2" stroke-linecap="round" stroke-linejoin="round"/>
</svg>
