<svg width="21" height="20" viewBox="0 0 21 20" fill="none" xmlns="http://www.w3.org/2000/svg">
<path fill-rule="evenodd" clip-rule="evenodd" d="M10.5481 1.66608C7.6218 1.65432 4.90446 3.17172 3.38367 5.66597C1.86268 8.16054 1.76057 11.2681 3.11455 13.8568L3.26773 14.1555C3.3263 14.2652 3.33759 14.3836 3.30366 14.4931C3.08487 15.0713 2.89264 15.6956 2.73925 16.33L2.72297 16.4667C2.72297 17.1045 3.0633 17.5428 3.73876 17.5278L3.85123 17.5142C4.46482 17.3788 5.06909 17.2042 5.66034 16.9916C5.73872 16.9718 5.86709 16.9795 5.98293 17.0269L6.55171 17.3488C6.55299 17.3527 6.55395 17.3557 6.5599 17.3592L6.59807 17.3725C9.66062 18.9829 13.4009 18.5386 15.9996 16.2558C18.5987 13.9726 19.5165 10.3243 18.3061 7.08578C17.0959 3.84757 14.0094 1.69152 10.5481 1.66608ZM10.3061 2.83175L10.5401 2.82809C13.5191 2.85074 16.1755 4.70641 17.2169 7.49285C18.2582 10.279 17.4687 13.4176 15.2322 15.3822L15.0487 15.5381C12.8854 17.3143 9.88168 17.6723 7.36041 16.4549L7.12063 16.3347L7.13091 16.3361L7.11574 16.3319L6.76381 16.13C6.63709 16.0584 6.53656 16.0041 6.45555 15.9651C6.06958 15.806 5.67778 15.7825 5.30928 15.884L4.96043 16.0038C4.72988 16.08 4.50293 16.1488 4.27711 16.211L3.94789 16.297L3.86947 16.6033C4.01166 16.0152 4.18986 15.4364 4.40307 14.8701C4.54027 14.4311 4.49832 13.9913 4.29779 13.6161L4.14702 13.322C2.98006 11.0908 3.0679 8.41749 4.37647 6.2713C5.64432 4.1919 7.87895 2.9012 10.3061 2.83175ZM5.89533 9.99939C5.89533 9.47421 6.32138 9.04886 6.84647 9.04886C7.37155 9.04886 7.7976 9.47421 7.7976 9.99939C7.7976 10.5246 7.37155 10.9499 6.84647 10.9499C6.32138 10.9499 5.89533 10.5246 5.89533 9.99939ZM9.59273 9.99939C9.59273 9.47422 10.0188 9.04886 10.5439 9.04886C11.0689 9.04886 11.495 9.47422 11.495 9.99939C11.495 10.5246 11.0689 10.9499 10.5439 10.9499C10.0188 10.9499 9.59273 10.5246 9.59273 9.99939ZM14.2413 9.04886C13.7162 9.04886 13.2901 9.47422 13.2901 9.99939C13.2901 10.5246 13.7162 10.9499 14.2413 10.9499C14.7663 10.9499 15.1924 10.5246 15.1924 9.99939C15.1924 9.47422 14.7663 9.04886 14.2413 9.04886Z" fill="black"/>
</svg>
