<svg width="20" height="20" viewBox="0 0 20 20" fill="none" xmlns="http://www.w3.org/2000/svg">
<path fill-rule="evenodd" clip-rule="evenodd" d="M16.2756 3.72407C16.5197 3.96815 16.5197 4.36388 16.2756 4.60796L4.60893 16.2746C4.36486 16.5187 3.96913 16.5187 3.72505 16.2746C3.48097 16.0305 3.48097 15.6348 3.72505 15.3907L15.3917 3.72407C15.6358 3.48 16.0315 3.48 16.2756 3.72407Z" fill="white"/>
<path fill-rule="evenodd" clip-rule="evenodd" d="M3.72538 3.72407C3.4813 3.96815 3.4813 4.36388 3.72538 4.60796L15.392 16.2746C15.6361 16.5187 16.0318 16.5187 16.2759 16.2746C16.52 16.0305 16.52 15.6348 16.2759 15.3907L4.60926 3.72407C4.36518 3.48 3.96945 3.48 3.72538 3.72407Z" fill="white"/>
</svg>
