<svg width="20" height="20" viewBox="0 0 20 20" fill="none" xmlns="http://www.w3.org/2000/svg">
<path fill-rule="evenodd" clip-rule="evenodd" d="M13.3392 14.7015C13.5994 14.9284 13.9942 14.9014 14.2211 14.6412C15.2715 13.4367 15.8937 11.8299 15.8937 10.057C15.8937 8.28405 15.2714 6.67814 14.2211 5.47364C13.9942 5.21348 13.5994 5.18649 13.3392 5.41336C13.0791 5.64022 13.0521 6.03503 13.279 6.29518C14.1268 7.2674 14.6437 8.5799 14.6437 10.057C14.6437 11.5342 14.1267 12.8475 13.279 13.8197C13.0521 14.0798 13.0791 14.4747 13.3392 14.7015Z" fill="#D9D9D9"/>
<path fill-rule="evenodd" clip-rule="evenodd" d="M15.877 17.2523C16.1372 17.4791 16.532 17.4522 16.7589 17.192C18.3894 15.3225 19.3598 12.824 19.3598 10.0577C19.3598 7.29154 18.3895 4.79222 16.7589 2.92259C16.532 2.66245 16.1372 2.63549 15.8771 2.86237C15.6169 3.08925 15.5899 3.48405 15.8168 3.7442C17.2446 5.38132 18.1098 7.58713 18.1098 10.0577C18.1098 12.5283 17.2447 14.7333 15.8168 16.3704C15.5899 16.6306 15.6169 17.0254 15.877 17.2523Z" fill="#D9D9D9"/>
<path fill-rule="evenodd" clip-rule="evenodd" d="M6.66076 14.7015C6.40061 14.9284 6.0058 14.9014 5.77894 14.6412C4.72852 13.4367 4.10626 11.8299 4.10625 10.057C4.10625 8.28405 4.72858 6.67814 5.77894 5.47364C6.0058 5.21348 6.40061 5.18649 6.66076 5.41336C6.92092 5.64022 6.94791 6.03503 6.72104 6.29518C5.87325 7.2674 5.35625 8.5799 5.35625 10.057C5.35626 11.5342 5.8733 12.8475 6.72104 13.8197C6.94791 14.0798 6.92092 14.4747 6.66076 14.7015Z" fill="#D9D9D9"/>
<path fill-rule="evenodd" clip-rule="evenodd" d="M4.12295 17.2523C3.86281 17.4791 3.468 17.4522 3.24112 17.192C1.61058 15.3225 0.640238 12.824 0.640238 10.0577C0.640238 7.29154 1.61055 4.79222 3.24112 2.92259C3.468 2.66245 3.86281 2.63549 4.12295 2.86237C4.38309 3.08925 4.41006 3.48405 4.18318 3.7442C2.75537 5.38132 1.89024 7.58713 1.89024 10.0577C1.89024 12.5283 2.75534 14.7333 4.18318 16.3704C4.41006 16.6306 4.38309 17.0254 4.12295 17.2523Z" fill="#D9D9D9"/>
<path d="M12.5 10C12.5 11.3807 11.3807 12.5 10 12.5C8.61929 12.5 7.5 11.3807 7.5 10C7.5 8.61929 8.61929 7.5 10 7.5C11.3807 7.5 12.5 8.61929 12.5 10Z" fill="#D9D9D9"/>
</svg>
