<?xml version="1.0" encoding="UTF-8" standalone="no"?>
<svg
   xmlns:dc="http://purl.org/dc/elements/1.1/"
   xmlns:cc="http://creativecommons.org/ns#"
   xmlns:rdf="http://www.w3.org/1999/02/22-rdf-syntax-ns#"
   xmlns:svg="http://www.w3.org/2000/svg"
   xmlns="http://www.w3.org/2000/svg"
   xmlns:sodipodi="http://sodipodi.sourceforge.net/DTD/sodipodi-0.dtd"
   xmlns:inkscape="http://www.inkscape.org/namespaces/inkscape"
   width="48"
   height="48"
   viewBox="0 0 48 48"
   fill="none"
   version="1.1"
   id="svg29"
   sodipodi:docname="love.svg"
   inkscape:version="0.92.4 (5da689c313, 2019-01-14)">
  <metadata
     id="metadata33">
    <rdf:RDF>
      <cc:Work
         rdf:about="">
        <dc:format>image/svg+xml</dc:format>
        <dc:type
           rdf:resource="http://purl.org/dc/dcmitype/StillImage" />
      </cc:Work>
    </rdf:RDF>
  </metadata>
  <sodipodi:namedview
     pagecolor="#ffffff"
     bordercolor="#666666"
     borderopacity="1"
     objecttolerance="10"
     gridtolerance="10"
     guidetolerance="10"
     inkscape:pageopacity="0"
     inkscape:pageshadow="2"
     inkscape:window-width="1920"
     inkscape:window-height="1137"
     id="namedview31"
     showgrid="false"
     inkscape:zoom="4.9166667"
     inkscape:cx="24"
     inkscape:cy="24"
     inkscape:window-x="-8"
     inkscape:window-y="-8"
     inkscape:window-maximized="1"
     inkscape:current-layer="g8" />
  <g
     filter="url(#filter0_d)"
     id="g8">
    <rect
       x="0"
       width="48"
       height="48"
       rx="24"
       id="rect2"
       fill="#333333" />
    <path
       d="m 29.709911,14.79008 c -0.599,-0.201 -1.229,-0.29 -1.86,-0.29 -1.39,-0.01 -2.739,0.45 -3.85,1.299 -0.09,-0.069 -0.2,-0.13 -0.3,-0.189 -0.1,-0.061 -0.28,-0.21 -0.43,-0.29 l -0.38,-0.17 c -0.2,-0.11 -0.409,-0.19 -0.63,-0.261 -0.02,-0.019 -0.05,-0.04 -0.09,-0.059 h -0.059 c -0.591,-0.201 -1.201,-0.311 -1.831,-0.33 h -0.11 c -0.28,0 -0.559,0.019 -0.84,0.06 h -0.12 c -0.3,0.039 -0.599,0.109 -0.889,0.209 -3.731,1.221 -5.061,5.271 -3.931,8.811 0.64,1.809 1.671,3.45 3.011,4.799 1.949,1.88 4.08,3.54 6.369,4.96 l 0.26,0.161 0.25,-0.151 c 2.281,-1.43 4.4,-3.09 6.331,-4.96 1.349,-1.349 2.379,-3 3.009,-4.809 1.111,-3.54 -0.219,-7.59 -3.91,-8.79 z"
       id="path4"
       inkscape:connector-curvature="0"
       style="fill:#fe4365" />
    <rect
       x="1"
       y="1"
       width="46"
       height="46"
       rx="23"
       id="rect6"
       stroke-width="2"
       stroke="#454545" />
  </g>
  <defs
     id="defs27">
    <filter
       id="filter0_d"
       x="0"
       y="0"
       width="48"
       height="48"
       filterUnits="userSpaceOnUse"
       color-interpolation-filters="sRGB">
      <feFlood
         flood-opacity="0"
         result="BackgroundImageFix"
         id="feFlood10" />
      <feColorMatrix
         in="SourceAlpha"
         type="matrix"
         values="0 0 0 0 0 0 0 0 0 0 0 0 0 0 0 0 0 0 127 0"
         id="feColorMatrix12" />
      <feMorphology
         radius="48"
         operator="erode"
         in="SourceAlpha"
         result="effect1_dropShadow"
         id="feMorphology14" />
      <feOffset
         dy="64"
         id="feOffset16" />
      <feGaussianBlur
         stdDeviation="32"
         id="feGaussianBlur18" />
      <feColorMatrix
         type="matrix"
         values="0 0 0 0 0.121458 0 0 0 0 0.182875 0 0 0 0 0.275 0 0 0 0.12 0"
         id="feColorMatrix20" />
      <feBlend
         mode="multiply"
         in2="BackgroundImageFix"
         result="effect1_dropShadow"
         id="feBlend22" />
      <feBlend
         mode="normal"
         in="SourceGraphic"
         in2="effect1_dropShadow"
         result="shape"
         id="feBlend24" />
    </filter>
  </defs>
</svg>
