<svg width="48" height="48" viewBox="0 0 48 48" fill="none" xmlns="http://www.w3.org/2000/svg">
<rect x="1" y="1" width="46" height="46" rx="23" fill="black" fill-opacity="0.5"/>
<path fill-rule="evenodd" clip-rule="evenodd" d="M25.7605 32.4314L33.4868 23.5525L25.7605 15.3604L25.7605 18.5008C25.7605 20.2041 24.4086 21.3662 23.0376 21.6144C21.4563 21.9007 19.616 22.7574 18.0992 24.5552C16.7299 26.1782 15.5591 28.6465 15.1467 32.3273C15.9087 31.3297 16.7659 30.2264 17.7052 29.2888C18.9958 28.0005 20.6147 26.8365 22.6891 26.5435C24.5984 26.2738 25.7605 27.9408 25.7605 29.365L25.7605 32.4314ZM34.6184 24.5372L26.892 33.4161C25.9815 34.4625 24.2605 33.8185 24.2605 32.4314L24.2605 29.365C24.2605 28.5916 23.6647 27.9206 22.8989 28.0287C20.0033 28.4377 18.0134 31.0447 16.2026 33.4172C15.9887 33.6973 15.7774 33.9741 15.5674 34.2437C14.8001 35.2286 13.4673 34.6854 13.5451 33.4394C14.1213 24.2174 18.9808 20.8245 22.7704 20.1384C23.5856 19.9908 24.2605 19.3292 24.2605 18.5008L24.2605 15.3604C24.2605 14.0028 25.9202 13.3436 26.8517 14.3313L34.578 22.5234C35.1072 23.0844 35.1247 23.9554 34.6184 24.5372Z" fill="#808080"/>
<rect x="1" y="1" width="46" height="46" rx="23" stroke="#454545" stroke-width="2"/>
</svg>
