<svg width="21" height="20" viewBox="0 0 21 20" fill="none" xmlns="http://www.w3.org/2000/svg">
<path fill-rule="evenodd" clip-rule="evenodd" d="M16.214 2.5H4.78582C2.8813 2.5 1.33414 4.03552 1.33414 5.93445L1.33325 8.22962C1.33313 8.55517 1.57375 8.82427 1.88598 8.86686L1.97279 8.87273C2.67157 8.87273 3.18933 9.35913 3.18933 10.0009C3.18933 10.6646 2.64945 11.2005 1.97279 11.2005C1.61958 11.2005 1.33325 11.4884 1.33325 11.8434V14.0656C1.33325 15.9648 2.8798 17.5 4.78493 17.5H16.2149C18.12 17.5 19.6666 15.9648 19.6666 14.0656V11.8434C19.6666 11.4884 19.3803 11.2005 19.027 11.2005C18.3504 11.2005 17.8105 10.6646 17.8105 10.0009C17.8105 9.33689 18.3506 8.80034 19.027 8.80034C19.3804 8.80034 19.6667 8.51236 19.6666 8.15722L19.6657 5.93419C19.6657 4.03552 18.1185 2.5 16.214 2.5ZM16.214 3.78572L16.3571 3.79029C17.4919 3.86316 18.3866 4.7967 18.3866 5.93445L18.3867 7.59743L18.3181 7.61591C17.2846 7.91918 16.5314 8.86936 16.5314 10.0009L16.5357 10.1474C16.5974 11.2137 17.3294 12.0952 18.3181 12.385L18.3875 12.4034V14.0656C18.3875 15.251 17.4172 16.2143 16.2149 16.2143H12.7167V14.9372L12.7109 14.85C12.6685 14.5362 12.401 14.2944 12.0772 14.2944C11.724 14.2944 11.4377 14.5822 11.4377 14.9372V16.2143H4.78492L4.64181 16.2097C3.50657 16.1369 2.61232 15.2036 2.61232 14.0656V12.4026L2.68176 12.385C3.71532 12.082 4.4684 11.1323 4.4684 10.0009L4.4642 9.85518C4.40279 8.79641 3.67504 7.95716 2.6843 7.68263L2.61147 7.66429L2.61321 5.9347C2.61321 4.74929 3.58409 3.78572 4.78581 3.78572H11.4377V5.43169L11.4435 5.51892C11.4858 5.8327 11.7534 6.07454 12.0772 6.07454C12.4304 6.07454 12.7167 5.78673 12.7167 5.43169V3.78572H16.214ZM12.0772 7.21737C12.401 7.21737 12.6685 7.45922 12.7109 7.77299L12.7167 7.86023V11.9925C12.7167 12.3476 12.4304 12.6354 12.0772 12.6354C11.7534 12.6354 11.4858 12.3935 11.4435 12.0797L11.4377 11.9925V7.86023C11.4377 7.50519 11.724 7.21737 12.0772 7.21737Z" fill="white"/>
</svg>
