<svg width="20" height="20" viewBox="0 0 20 20" fill="none" xmlns="http://www.w3.org/2000/svg">
<path fill-rule="evenodd" clip-rule="evenodd" d="M9.99984 1.66797C5.39716 1.66797 1.6665 5.39862 1.6665 10.0013C1.6665 14.604 5.39716 18.3346 9.99984 18.3346C14.6025 18.3346 18.3332 14.604 18.3332 10.0013C18.3332 5.39862 14.6025 1.66797 9.99984 1.66797ZM9.99984 2.91797C13.9122 2.91797 17.0832 6.08898 17.0832 10.0013C17.0832 13.9136 13.9122 17.0846 9.99984 17.0846C6.08751 17.0846 2.9165 13.9136 2.9165 10.0013C2.9165 6.08898 6.08751 2.91797 9.99984 2.91797ZM10.3371 6.45516C10.2957 6.1501 10.0343 5.91497 9.71784 5.91497C9.37266 5.91497 9.09284 6.19479 9.09284 6.53997V10.5791L9.0998 10.6723C9.12741 10.8556 9.23562 11.0192 9.39764 11.1159L12.5393 12.99L12.6151 13.0286C12.8983 13.1493 13.2342 13.0452 13.3963 12.7735L13.4348 12.6977C13.5556 12.4146 13.4514 12.0787 13.1797 11.9166L10.3425 10.2234L10.3428 6.53997L10.3371 6.45516Z" fill="#D9D9D9"/>
</svg>
