<svg width="55" height="57" viewBox="0 0 55 57" fill="none" xmlns="http://www.w3.org/2000/svg">
<mask id="mask0_5535_63383" style="mask-type:alpha" maskUnits="userSpaceOnUse" x="10" y="11" width="36" height="46">
<rect x="10" y="11" width="35.234" height="46" fill="#C4C4C4"/>
</mask>
<g mask="url(#mask0_5535_63383)">
<path d="M33.8789 57L45.2345 55.9584L45.2345 1.03743L33.8789 -0.744682L33.8789 57Z" fill="#BBDD80"/>
<path d="M10 -0.744682L10 57L33.8787 57L33.8787 -0.744683L10 -0.744682Z" fill="#7C994A"/>
<path d="M11.7734 1.03594L11.7734 55.2163L32.1058 55.2163L32.1058 1.03594L11.7734 1.03594Z" fill="#ABCF75"/>
<path d="M13.543 2.81792L13.543 53.4336L30.329 53.4336L30.329 2.81792L13.543 2.81792Z" fill="#7C994A"/>
<path d="M19.3395 4.59915C19.3395 5.67057 18.916 6.6981 18.1623 7.45573C17.4086 8.21336 16.3863 8.63902 15.3203 8.63908L15.3203 47.6101C16.3863 47.6102 17.4086 48.0358 18.1623 48.7934C18.916 49.551 19.3395 50.5785 19.3395 51.6499L24.5408 51.6499C24.5408 50.5785 24.9643 49.551 25.718 48.7934C26.4717 48.0358 27.494 47.6102 28.56 47.6101L28.56 8.63908C27.494 8.63902 26.4717 8.21336 25.718 7.45574C24.9642 6.69812 24.5408 5.67057 24.5408 4.59915L19.3395 4.59915Z" fill="#ABCF75"/>
<path d="M22.2035 33.2993C21.169 33.2993 20.1576 32.991 19.2974 32.4132C18.4372 31.8355 17.7668 31.0144 17.3708 30.0537C16.9749 29.093 16.8713 28.0359 17.0732 27.016C17.275 25.9961 17.7732 25.0593 18.5047 24.324C19.2363 23.5887 20.1683 23.0879 21.183 22.8851C22.1977 22.6822 23.2495 22.7863 24.2053 23.1843C25.1611 23.5822 25.9781 24.2561 26.5528 25.1207C27.1276 25.9853 27.4344 27.0018 27.4344 28.0417C27.4344 29.4361 26.8833 30.7734 25.9023 31.7594C24.9213 32.7454 23.5908 33.2993 22.2035 33.2993Z" fill="#7C994A"/>
<path d="M36.7345 -0.299313L35.7734 -0.449894L35.7734 56.8242L36.7345 56.7362L36.7345 -0.299313Z" fill="#7C994A"/>
<path d="M39.1369 0.0773429L38.1758 -0.0738792L38.1758 56.6021L39.1369 56.514L39.1369 0.0773429Z" fill="#7C994A"/>
<path d="M40.5859 0.309277L40.5859 56.3857L41.5467 56.2977L41.5467 0.460178L40.5859 0.309277Z" fill="#7C994A"/>
<path d="M43.832 0.607971L43.832 56.0859L44.7931 55.9976L44.7931 0.758873L43.832 0.607971Z" fill="#7C994A"/>
</g>
<path fill-rule="evenodd" clip-rule="evenodd" d="M6 16V6H49V16H47V22H52C53.6569 22 55 20.6569 55 19V3C55 1.34315 53.6569 0 52 0H3C1.34315 0 0 1.34315 0 3V19C0 20.6569 1.34315 22 3 22H8V16H6Z" fill="#FAFAFA"/>
</svg>
