<?xml version="1.0" encoding="utf-8"?>
<!-- Generator: Adobe Illustrator 25.0.0, SVG Export Plug-In . SVG Version: 6.00 Build 0)  -->
<svg version="1.1" id="图层_1" xmlns="http://www.w3.org/2000/svg" xmlns:xlink="http://www.w3.org/1999/xlink" x="0px" y="0px"
	 width="32px" height="36px" viewBox="0 0 32 36" style="enable-background:new 0 0 32 36;" xml:space="preserve">
<style type="text/css">
	.st0{fill-rule:evenodd;clip-rule:evenodd;fill:#FE4365;}
</style>
<path class="st0" d="M31.698,24.736L31.698,24.736C31.899,23.427,32,21.916,32,20.507c-0.201-4.532-1.813-8.157-4.532-9.969
	l-0.101-0.101c-1.712-1.108-4.33-1.913-7.25-2.417l2.719-1.813c0.101,0,0.201-0.101,0.201-0.201
	c1.007-0.806,1.108-2.115,0.302-3.122c-0.806-0.806-2.115-1.007-3.122-0.201L14.78,7.113L8.134,0.971L8.033,0.87
	c-0.806-0.604-2.115-0.504-2.82,0.403S4.71,3.387,5.516,3.992l4.733,3.927C7.228,8.422,4.408,9.53,2.495,12.048c0,0,0,0,0,0.101
	c-2.618,3.525-2.618,8.56-2.417,11.379v0.101c0.604,5.438,2.719,8.862,6.445,10.473l0,0c2.115,0.906,5.136,1.41,8.358,1.41
	c2.014,0,5.035-0.101,7.955-0.906c0.906-0.201,1.712-0.504,2.417-0.906l0.101,1.007c0,0.101,0.101,0.101,0.101,0.101l6.042-0.705
	c0.101,0,0.101-0.101,0.101-0.101L31.698,24.736z M14.982,31.785c-2.719-0.101-5.337-0.504-7.049-1.208
	c-2.719-1.208-3.625-4.028-4.028-7.351c-0.302-3.222,0.403-6.747,1.813-8.862c1.611-2.215,5.236-3.021,9.063-2.92
	c4.028,0.101,8.257,1.108,10.372,2.316c3.726,2.518,3.424,10.876,1.208,14.602C24.85,30.778,19.715,31.886,14.982,31.785z
	 M14.881,14.364c-3.122,0.604-5.539,3.222-5.941,6.445c-0.302,3.222,1.511,6.243,4.532,7.553c1.913,0.806,3.927,0.604,5.841,0.403
	c1.007-0.101,1.813-0.403,2.82-0.604c0.101,0,0.201-0.101,0.201-0.201l0,0c0-0.101,0-0.201-0.101-0.201
	c-0.403-0.302-0.705-0.604-1.108-1.007c1.007-1.108,1.611-2.215,1.913-3.525C24.347,18.19,20.017,13.457,14.881,14.364z
	 M16.291,25.038c-2.014,0-3.525-1.712-3.525-3.625c0-2.014,1.712-3.525,3.625-3.525c2.014,0,3.525,1.712,3.525,3.625
	C19.815,23.528,18.204,25.038,16.291,25.038z"/>
</svg>
