<?xml version="1.0" encoding="utf-8"?>
<!-- Generator: Adobe Illustrator 26.2.1, SVG Export Plug-In . SVG Version: 6.00 Build 0)  -->
<svg version="1.1" id="图层_1" xmlns="http://www.w3.org/2000/svg" xmlns:xlink="http://www.w3.org/1999/xlink" x="0px" y="0px"
	 viewBox="0 0 16 16" enable-background="new 0 0 16 16" xml:space="preserve">
<path fill="#FE4365" d="M2.56,0h10.88C14.854,0,16,1.146,16,2.56v10.88c0,1.414-1.146,2.56-2.56,2.56H2.56
	C1.146,16,0,14.854,0,13.44V2.561C-0.001,1.146,1.145,0,2.56,0z"/>
<path fill="#FFFFFF" d="M3.112,10.529V5.471c0-0.974,0.508-1.839,1.358-2.314c0.851-0.475,1.853-0.453,2.682,0.058
	C7.457,3.403,7.741,3.617,8,3.853c0.259-0.236,0.543-0.449,0.847-0.637c0.829-0.511,1.832-0.533,2.682-0.058
	c0.851,0.475,1.358,1.34,1.358,2.314v5.058c0,0.974-0.508,1.839-1.358,2.314c-0.851,0.475-1.853,0.453-2.682-0.058
	C8.543,12.597,8.259,12.383,8,12.147c-0.259,0.236-0.543,0.449-0.847,0.637c-0.829,0.511-1.832,0.533-2.682,0.058
	C3.62,12.368,3.112,11.503,3.112,10.529z M7.388,4.506C7.172,4.311,6.936,4.134,6.683,3.978C6.134,3.639,5.47,3.625,4.907,3.939
	C4.344,4.253,4.008,4.826,4.008,5.471v5.058c0,0.645,0.336,1.218,0.899,1.532c0.563,0.314,1.227,0.3,1.776-0.039
	c0.253-0.156,0.489-0.333,0.705-0.528c-0.291-0.366-0.536-0.769-0.727-1.201L6.659,10.29C6.461,9.834,6.506,9.315,6.778,8.901
	C7.049,8.488,7.506,8.241,8,8.241s0.951,0.247,1.222,0.659c0.272,0.415,0.317,0.934,0.119,1.389L9.34,10.293
	c-0.191,0.432-0.436,0.835-0.727,1.201c0.216,0.195,0.452,0.372,0.705,0.528c0.549,0.339,1.213,0.353,1.776,0.039
	c0.563-0.314,0.899-0.887,0.899-1.532V5.471c0-0.645-0.336-1.218-0.899-1.532c-0.563-0.314-1.227-0.3-1.776,0.039
	C9.064,4.134,8.828,4.311,8.612,4.506C8.904,4.872,9.148,5.275,9.34,5.707L9.341,5.71c0.197,0.455,0.153,0.974-0.119,1.389
	C8.951,7.512,8.494,7.759,8,7.759S7.049,7.512,6.778,7.099C6.506,6.685,6.461,6.166,6.659,5.71L6.66,5.707
	C6.852,5.275,7.096,4.872,7.388,4.506z M8.568,9.704c0-0.109-0.032-0.216-0.095-0.312C8.367,9.23,8.194,9.137,8,9.137
	c-0.194,0-0.367,0.093-0.473,0.255C7.42,9.555,7.402,9.752,7.48,9.932c0.14,0.317,0.315,0.614,0.52,0.889
	c0.205-0.275,0.38-0.573,0.52-0.889C8.552,9.857,8.568,9.78,8.568,9.704z M7.48,6.068c-0.077,0.18-0.06,0.376,0.047,0.54
	C7.633,6.77,7.806,6.863,8,6.863c0.194,0,0.367-0.093,0.473-0.255c0.107-0.163,0.124-0.36,0.047-0.54
	C8.38,5.752,8.205,5.454,8,5.179C7.795,5.454,7.62,5.752,7.48,6.068z"/>
</svg>
