<?xml version="1.0" encoding="utf-8"?>
<!-- Generator: Adobe Illustrator 25.3.1, SVG Export Plug-In . SVG Version: 6.00 Build 0)  -->
<svg version="1.1" id="图层_1" xmlns="http://www.w3.org/2000/svg" xmlns:xlink="http://www.w3.org/1999/xlink" x="0px" y="0px"
	 width="150px" height="49px" viewBox="0 0 150 49" enable-background="new 0 0 150 49" xml:space="preserve">
<defs>
	<filter id="Adobe_OpacityMaskFilter" filterUnits="userSpaceOnUse" x="-0.899" y="-1.008" width="45.032" height="49.501">
		<feColorMatrix  type="matrix" values="1 0 0 0 0  0 1 0 0 0  0 0 1 0 0  0 0 0 1 0"/>
	</filter>
</defs>
<mask maskUnits="userSpaceOnUse" x="-0.899" y="-1.008" width="45.032" height="49.501" id="mask0_1_">
	<path fill-rule="evenodd" clip-rule="evenodd" fill="#FFFFFF" filter="url(#Adobe_OpacityMaskFilter)" d="M11.161,0.616
		c0.027,0.022,0.057,0.048,0.085,0.073l0.041,0.037l8.948,8.298l7.23-5.926c1.25-1.025,3.083-0.828,4.094,0.44
		c1.011,1.267,0.816,3.126-0.434,4.151c-0.074,0.061-0.16,0.123-0.242,0.178l-0.061,0.039l-3.666,2.292
		c3.843,0.687,7.358,1.849,9.669,3.278c0.055,0.034,0.109,0.069,0.163,0.104c3.674,2.468,5.837,7.226,6.09,13.397
		c0.063,1.54,0,3.098-0.178,4.614c0.004,0.083,0.003,0.189-0.006,0.322l-0.004,0.059L42.558,45.58
		c0.008,0.076-0.039,0.145-0.107,0.164l-0.021,0.004l-8.009,0.894c-0.072,0.008-0.138-0.042-0.154-0.115l-0.003-0.02l-0.121-1.217
		c-0.004-0.043,0.01-0.085,0.037-0.116c-0.966,0.42-2.02,0.785-3.161,1.095c-3.949,1.073-7.959,1.237-10.628,1.186
		c-4.351-0.083-8.342-0.79-11.237-1.989c-0.012-0.005-0.024-0.01-0.036-0.015c-4.911-2.078-7.775-6.86-8.513-14.212
		c-0.004-0.033-0.007-0.066-0.009-0.099c-0.301-3.693-0.288-10.614,3.181-15.481c0.019-0.026,0.038-0.053,0.057-0.079
		c2.457-3.315,6.322-4.905,10.212-5.596l0.134-0.023l-6.333-5.17C6.71,3.862,6.531,2.175,7.446,1.023
		C8.361-0.13,10.024-0.312,11.161,0.616z M8.197,18.883c-2.049,2.885-2.861,7.645-2.503,12.043c0.44,4.402,1.773,8.437,5.384,9.97
		c2.349,0.976,5.795,1.539,9.399,1.609c6.318,0.121,13.122-1.278,15.351-4.638c2.906-4.91,3.306-16.421-1.677-19.777
		c-2.744-1.703-8.378-3.096-13.832-3.2C15.16,14.79,10.439,15.848,8.197,18.883z M31.071,30.886
		c-0.444,1.812-1.341,3.349-2.673,4.817c0.548,0.474,1.064,0.921,1.58,1.368c-0.032,0.121-0.064,0.242-0.096,0.362
		c-1.331,0.262-2.652,0.604-3.994,0.769c-2.702,0.334-5.405,0.635-8.049-0.461c-4.008-1.662-6.555-5.842-6.113-10.155
		c0.449-4.378,3.786-7.985,8.092-8.746C26.797,17.607,32.758,24.003,31.071,30.886z M16.857,28.505
		c-0.051,2.736,2.11,4.996,4.827,5.048c2.717,0.052,4.962-2.124,5.013-4.861c0.052-2.737-2.11-4.997-4.827-5.049
		C19.152,23.592,16.907,25.768,16.857,28.505z"/>
</mask>
<g mask="url(#mask0_1_)">
	<path fill-rule="evenodd" clip-rule="evenodd" fill="#FE4365" d="M-0.899-1.008h45.032v49.501H-0.899V-1.008z"/>
</g>
<path fill="#FFFFFF" d="M49.732,17.153h5.333v8.775h10.359v-8.775h5.333v23.532h-5.333V30.514H55.066v10.171h-5.333V17.153z"/>
<path fill="#FFFFFF" d="M83.185,38.658h-0.068c-0.57,0.864-1.333,1.485-2.291,1.861c-0.935,0.377-1.926,0.565-2.974,0.565
	c-0.775,0-1.527-0.111-2.256-0.332c-0.707-0.199-1.333-0.51-1.88-0.931c-0.547-0.421-0.98-0.942-1.299-1.562
	c-0.319-0.62-0.479-1.341-0.479-2.16c0-0.931,0.171-1.717,0.513-2.36c0.365-0.643,0.843-1.174,1.436-1.595
	c0.615-0.421,1.311-0.742,2.086-0.964c0.775-0.244,1.573-0.421,2.393-0.532c0.843-0.111,1.675-0.177,2.496-0.199
	c0.843-0.022,1.618-0.033,2.325-0.033c0-0.886-0.33-1.584-0.991-2.094c-0.638-0.532-1.402-0.798-2.291-0.798
	c-0.843,0-1.618,0.177-2.325,0.532c-0.684,0.332-1.299,0.798-1.846,1.396l-2.735-2.725c0.957-0.864,2.074-1.507,3.351-1.928
	c1.276-0.443,2.598-0.665,3.966-0.665c1.504,0,2.735,0.188,3.692,0.565c0.98,0.354,1.755,0.886,2.325,1.595
	c0.593,0.709,1.003,1.584,1.231,2.626c0.228,1.019,0.342,2.205,0.342,3.556v8.21h-4.718V38.658z M81.92,33.605
	c-0.387,0-0.878,0.022-1.47,0.067c-0.57,0.022-1.128,0.111-1.675,0.266c-0.524,0.155-0.98,0.388-1.368,0.698
	c-0.365,0.31-0.547,0.742-0.547,1.296c0,0.598,0.262,1.042,0.786,1.33c0.524,0.288,1.071,0.432,1.641,0.432
	c0.501,0,0.98-0.066,1.436-0.199c0.479-0.133,0.9-0.321,1.265-0.565c0.365-0.244,0.65-0.554,0.855-0.931
	c0.228-0.377,0.342-0.82,0.342-1.329v-1.064H81.92z"/>
<path fill="#FFFFFF" d="M89.331,24.532h4.718v2.127h0.068c0.205-0.288,0.467-0.576,0.786-0.864c0.342-0.31,0.729-0.587,1.162-0.831
	c0.456-0.244,0.946-0.443,1.47-0.598c0.524-0.155,1.083-0.233,1.675-0.233c1.23,0,2.347,0.211,3.35,0.632
	c1.003,0.399,1.858,0.975,2.564,1.728c0.73,0.731,1.288,1.606,1.675,2.626c0.388,1.019,0.582,2.138,0.582,3.357
	c0,1.13-0.183,2.216-0.547,3.257c-0.342,1.019-0.844,1.928-1.505,2.725c-0.638,0.798-1.424,1.44-2.359,1.928
	c-0.934,0.465-1.994,0.698-3.179,0.698c-1.071,0-2.074-0.155-3.009-0.465c-0.912-0.332-1.664-0.886-2.256-1.662h-0.068v9.307h-5.128
	V24.532z M94.049,32.608c0,1.219,0.353,2.205,1.06,2.958c0.729,0.753,1.744,1.13,3.043,1.13c1.299,0,2.302-0.377,3.008-1.13
	c0.73-0.753,1.094-1.739,1.094-2.958c0-1.219-0.364-2.205-1.094-2.958c-0.706-0.753-1.709-1.13-3.008-1.13
	c-1.299,0-2.313,0.377-3.043,1.13C94.402,30.404,94.049,31.39,94.049,32.608z"/>
<path fill="#FFFFFF" d="M108.598,24.532h4.718v2.127h0.068c0.206-0.288,0.468-0.576,0.787-0.864c0.342-0.31,0.729-0.587,1.162-0.831
	c0.456-0.244,0.946-0.443,1.47-0.598c0.525-0.155,1.083-0.233,1.676-0.233c1.23,0,2.347,0.211,3.35,0.632
	c1.003,0.399,1.858,0.975,2.564,1.728c0.73,0.731,1.288,1.606,1.676,2.626c0.387,1.019,0.581,2.138,0.581,3.357
	c0,1.13-0.183,2.216-0.547,3.257c-0.342,1.019-0.844,1.928-1.505,2.725c-0.638,0.798-1.424,1.44-2.359,1.928
	c-0.934,0.465-1.994,0.698-3.179,0.698c-1.071,0-2.074-0.155-3.009-0.465c-0.912-0.332-1.664-0.886-2.256-1.662h-0.069v9.307h-5.128
	V24.532z M113.316,32.608c0,1.219,0.353,2.205,1.06,2.958c0.729,0.753,1.744,1.13,3.043,1.13c1.299,0,2.302-0.377,3.008-1.13
	c0.73-0.753,1.094-1.739,1.094-2.958c0-1.219-0.364-2.205-1.094-2.958c-0.706-0.753-1.709-1.13-3.008-1.13
	c-1.299,0-2.314,0.377-3.043,1.13C113.669,30.404,113.316,31.39,113.316,32.608z"/>
<path fill="#FFFFFF" d="M127.455,24.532h5.128v16.153h-5.128V24.532z M127.045,19.446c0-0.798,0.284-1.474,0.854-2.027
	c0.593-0.576,1.299-0.864,2.12-0.864s1.516,0.288,2.086,0.864c0.592,0.554,0.888,1.23,0.888,2.027c0,0.798-0.296,1.485-0.888,2.061
	c-0.57,0.554-1.265,0.831-2.086,0.831s-1.527-0.277-2.12-0.831C127.329,20.931,127.045,20.244,127.045,19.446z"/>
<path fill="#FFFFFF" d="M134,24.532h4.923v2.194h0.068c0.16-0.31,0.388-0.621,0.684-0.931c0.296-0.31,0.65-0.587,1.06-0.831
	c0.41-0.244,0.877-0.443,1.402-0.598c0.524-0.155,1.094-0.233,1.709-0.233c1.299,0,2.348,0.2,3.145,0.598
	c0.798,0.377,1.414,0.909,1.847,1.595c0.455,0.687,0.763,1.496,0.923,2.426c0.159,0.931,0.239,1.939,0.239,3.025v8.908h-5.128v-7.91
	c0-0.465-0.023-0.942-0.069-1.429c-0.022-0.51-0.125-0.975-0.307-1.396c-0.16-0.421-0.422-0.764-0.787-1.03
	c-0.342-0.266-0.843-0.399-1.504-0.399s-1.197,0.122-1.607,0.366c-0.41,0.222-0.729,0.532-0.957,0.931
	c-0.205,0.377-0.342,0.809-0.41,1.296c-0.069,0.488-0.103,0.997-0.103,1.529v8.043H134V24.532z"/>
</svg>
