<?xml version="1.0" encoding="utf-8"?>
<!-- Generator: Adobe Illustrator 25.4.0, SVG Export Plug-In . SVG Version: 6.00 Build 0)  -->
<svg version="1.1" id="图层_1" xmlns="http://www.w3.org/2000/svg" xmlns:xlink="http://www.w3.org/1999/xlink" x="0px" y="0px"
	 width="24px" height="24px" viewBox="0 0 24 24" enable-background="new 0 0 24 24" xml:space="preserve">
<g>
	<g>
		<defs>
			<rect id="SVGID_1_" y="2.476" width="24" height="20.027"/>
		</defs>
		<clipPath id="SVGID_00000104705905125990489880000016589146247951529634_">
			<use xlink:href="#SVGID_1_"  overflow="visible"/>
		</clipPath>
		<g clip-path="url(#SVGID_00000104705905125990489880000016589146247951529634_)">
			<path fill="#6AC3EF" d="M20.578,2.476H12H3.422L0,7.878l12,14.625L24,7.878L20.578,2.476z"/>
			<path fill="#7FD5EF" d="M5.402,7.867L12,22.503V2.476L5.402,7.867z"/>
			<path fill="#5396D3" d="M0.004,7.867H23.99l-3.415-5.391h-8.578H3.419L0.004,7.867z"/>
			<path fill="#5FB4D6" d="M12,2.476H3.422L12,7.867l8.577-5.391H12z"/>
			<path fill="#426DBA" d="M12,2.476L5.402,7.867H12V2.476z"/>
			<path fill="#7FD5EF" d="M8.27,5.523l3.729,2.344V2.476L8.27,5.523z"/>
			<path fill="#B6F1FF" d="M18.598,7.867L12,22.503V2.476L18.598,7.867z"/>
			<path fill="#73ACFF" d="M12,2.476l6.598,5.391H12V2.476z"/>
			<path fill="#9CECFF" d="M15.729,5.523L12,7.867V2.476L15.729,5.523z"/>
		</g>
	</g>
</g>
</svg>
