<svg width="24" height="24" viewBox="0 0 24 24" fill="none" xmlns="http://www.w3.org/2000/svg">
<path d="M12 24C18.6274 24 24 18.6274 24 12C24 5.37258 18.6274 0 12 0C5.37258 0 0 5.37258 0 12C0 18.6274 5.37258 24 12 24Z" fill="#F6D738"/>
<path d="M12.0006 22.1839C17.6252 22.1839 22.1849 17.6243 22.1849 11.9997C22.1849 6.37507 17.6252 1.81543 12.0006 1.81543C6.37605 1.81543 1.81641 6.37507 1.81641 11.9997C1.81641 17.6243 6.37605 22.1839 12.0006 22.1839Z" fill="#F3CC30"/>
<path d="M3.59885 12.9319C3.59885 7.96687 7.62383 3.94189 12.5889 3.94189C13.9664 3.94076 15.3257 4.25676 16.5615 4.8654C17.7973 5.47404 18.8764 6.35899 19.7152 7.4517C18.9274 6.08069 17.7918 4.94181 16.4231 4.15006C15.0544 3.35832 13.5009 2.94174 11.9197 2.94238C6.95467 2.94238 2.9297 6.96736 2.9297 11.9324C2.92675 13.9152 3.58229 15.8428 4.79341 17.4127C4.00843 16.05 3.59641 14.5045 3.59885 12.9319Z" fill="#F7DB5E"/>
<path d="M17.3282 3.30762C18.3774 4.94466 18.9336 6.84892 18.9305 8.79332C18.9305 14.4179 14.3709 18.9775 8.74624 18.9775C6.86499 18.9804 5.02007 18.4596 3.41797 17.4736C4.33846 18.9147 5.60729 20.1007 7.10724 20.9219C8.6072 21.7431 10.2899 22.1731 12 22.1721C17.6246 22.1721 22.1842 17.6125 22.1842 11.9879C22.185 10.2464 21.739 8.53392 20.8888 7.01414C20.0386 5.49436 18.8126 4.21816 17.3282 3.30762Z" fill="#EDBD31"/>
<path d="M10.1801 7.76018C10.1848 7.76403 10.1899 7.76842 10.1947 7.77282L10.2018 7.7792L11.7396 9.22074L12.9822 8.19127C13.1969 8.01326 13.5119 8.04739 13.6856 8.26771C13.8593 8.48789 13.826 8.81088 13.611 8.98889C13.5983 8.99946 13.5836 9.01031 13.5695 9.01979L13.5591 9.02659L12.929 9.42471C13.5895 9.54408 14.1935 9.74592 14.5908 9.99426C14.6003 10.0001 14.6095 10.0061 14.6187 10.0123C15.2501 10.4411 15.6218 11.2677 15.6652 12.3398C15.6761 12.6074 15.6652 12.8781 15.6347 13.1413C15.6354 13.1557 15.6352 13.1742 15.6338 13.1973L15.6331 13.2075L15.5758 15.5715C15.5772 15.5848 15.5692 15.5967 15.5575 15.5999L15.5539 15.6006L14.1775 15.7558C14.1651 15.7572 14.1539 15.7485 14.151 15.7359L14.1505 15.7324L14.1297 15.5209C14.129 15.5134 14.1314 15.5062 14.136 15.5008C13.97 15.5737 13.7888 15.6372 13.5927 15.691C12.914 15.8774 12.2249 15.906 11.7661 15.8971C11.0183 15.8827 10.3325 15.7599 9.83504 15.5516L9.82894 15.549C8.98494 15.188 8.4927 14.3573 8.36586 13.08C8.36525 13.0742 8.36478 13.0686 8.36437 13.0628C8.31255 12.4214 8.31479 11.219 8.91094 10.3734C8.91419 10.3688 8.91738 10.3642 8.92084 10.3597C9.34315 9.78376 10.0073 9.5074 10.6759 9.38749L10.699 9.38337L9.61053 8.48514C9.41518 8.32402 9.38425 8.03104 9.54162 7.83085C9.69891 7.63059 9.98468 7.59893 10.1801 7.76011V7.76018ZM9.67056 10.9333C9.31846 11.4344 9.17893 12.2614 9.24039 13.0254C9.31601 13.7901 9.54514 14.4911 10.1656 14.7574C10.5693 14.9269 11.1615 15.0248 11.7809 15.0369C12.8666 15.058 14.036 14.815 14.419 14.2311C14.9185 13.3781 14.9872 11.3784 14.1309 10.7954C13.6592 10.4996 12.6911 10.2576 11.7537 10.2394C10.8673 10.2222 10.056 10.406 9.67056 10.9333ZM13.6017 13.0185C13.5253 13.3332 13.3711 13.6003 13.1423 13.8553L13.4139 14.0929L13.3973 14.1558C13.1686 14.2014 12.9415 14.2607 12.7109 14.2895C12.2464 14.3475 11.7819 14.3998 11.3276 14.2093C10.6388 13.9206 10.2009 13.1946 10.2769 12.4453C10.3542 11.6846 10.9275 11.0581 11.6677 10.9258C12.8671 10.7115 13.8916 11.8226 13.6016 13.0185H13.6017ZM11.1588 12.6048C11.15 13.0801 11.5214 13.4728 11.9884 13.4818C12.4553 13.4908 12.8411 13.1127 12.8499 12.6374C12.8587 12.1619 12.4873 11.7692 12.0204 11.7602C11.5533 11.7513 11.1676 12.1293 11.1588 12.6048Z" fill="#D49A34"/>
</svg>
