<svg width="405" height="816" viewBox="0 0 405 816" fill="none" xmlns="http://www.w3.org/2000/svg">
<path d="M395 188H400C402.761 188 405 190.239 405 193V279C405 281.761 402.761 284 400 284H395V188Z" fill="#07040C"/>
<path d="M10 302L5 302C2.23858 302 5.52634e-06 299.761 5.28493e-06 297L8.26371e-07 246C5.84959e-07 243.239 2.23858 241 5 241L9.99999 241L10 302Z" fill="#07040C"/>
<path d="M10 225L5 225C2.23858 225 5.52634e-06 222.761 5.28493e-06 220L8.26371e-07 169C5.84959e-07 166.239 2.23858 164 5 164L9.99999 164L10 225Z" fill="#07040C"/>
<path d="M10 140L5 140C2.23858 140 2.66532e-06 137.761 2.42391e-06 135L5.00608e-07 113C2.59197e-07 110.239 2.23858 108 5 108L10 108L10 140Z" fill="#07040C"/>
<rect x="10" y="5" width="385" height="806" rx="45" stroke="#07040C" stroke-width="10"/>
</svg>
